<svg xmlns="http://www.w3.org/2000/svg" viewBox="0 0 32 32" id="camera"><defs><linearGradient id="a" x1="8.719" x2="23.281" y1="30.611" y2="5.389" gradientUnits="userSpaceOnUse"><stop offset="0" stop-color="#4ca5ff"></stop><stop offset="1" stop-color="#FF4CC2"></stop></linearGradient></defs><path fill="url(#a)" d="M27 8h-2.764a1 1 0 0 1-.894-.553l-.895-1.789A2.983 2.983 0 0 0 19.764 4h-7.528a2.983 2.983 0 0 0-2.683 1.658l-.9 1.789A1 1 0 0 1 7.764 8H5a3 3 0 0 0-3 3v14a3 3 0 0 0 3 3h22a3 3 0 0 0 3-3V11a3 3 0 0 0-3-3Zm1 17a1 1 0 0 1-1 1H5a1 1 0 0 1-1-1V11a1 1 0 0 1 1-1h2.764a2.983 2.983 0 0 0 2.683-1.658l.9-1.789A1 1 0 0 1 12.236 6h7.528a1 1 0 0 1 .894.553l.895 1.789A2.983 2.983 0 0 0 24.236 10H27a1 1 0 0 1 1 1ZM16 10a7 7 0 1 0 7 7 7.008 7.008 0 0 0-7-7Zm0 12a5 5 0 1 1 5-5 5.006 5.006 0 0 1-5 5Zm-8.29-9.71a1.014 1.014 0 0 1 0 1.42c-.05.04-.1.08-.16.12a.568.568 0 0 1-.17.09.609.609 0 0 1-.191.06A1.2 1.2 0 0 1 7 14a.838.838 0 0 1-.38-.08 1.032 1.032 0 0 1-.33-.21 1.576 1.576 0 0 1-.12-.15.757.757 0 0 1-.09-.18.636.636 0 0 1-.06-.18A.68.68 0 0 1 6 13a1.007 1.007 0 0 1 .29-.71 1.032 1.032 0 0 1 .33-.21 1.021 1.021 0 0 1 1.09.21Z" data-name="Layer 2"></path></svg>