<svg xmlns="http://www.w3.org/2000/svg" data-name="Layer 24" viewBox="0 0 48 48" id="gift"><defs><linearGradient id="a" x1="5.027" x2="42.973" y1="6.323" y2="44.268" gradientUnits="userSpaceOnUse"><stop offset="0" stop-color="#fee140"></stop><stop offset="1" stop-color="#fa709a"></stop></linearGradient></defs><path fill="url(#a)" d="M43,12H40.3A5.6,5.6,0,0,0,42,8a5.785,5.785,0,0,0-6-6c-4.416,0-7.978,4.329-8.68,5.242A3.4,3.4,0,0,0,24,7.69a3.4,3.4,0,0,0-3.32-.448C19.977,6.329,16.415,2,12,2A5.785,5.785,0,0,0,6,8a5.6,5.6,0,0,0,1.7,4H5a3,3,0,0,0-3,3v5a3,3,0,0,0,3,3v9a1,1,0,0,0,2,0V23H18V44H8a1,1,0,0,1-1-1V38a1,1,0,0,0-2,0v5a3,3,0,0,0,3,3H40a3,3,0,0,0,3-3V25a1,1,0,0,0-2,0V43a1,1,0,0,1-1,1H30V23H43a3,3,0,0,0,3-3V15A3,3,0,0,0,43,12ZM36,4c3.955,0,4,3.837,4,4,0,2.466-2.559,3.725-3.195,4H29.972c0.013-.166.028-0.333,0.025-0.5C31.435,10.432,33.773,9,35,9a1,1,0,0,0,0-2c-1.734,0-4.094,1.427-5.489,2.389a4.891,4.891,0,0,0-.592-0.945C29.506,7.689,32.551,4,36,4ZM17,21V14h1.578a5.23,5.23,0,0,0,.6.971l2.2,2.731a3.3,3.3,0,0,0,5.247,0l2.2-2.731a5.23,5.23,0,0,0,.6-0.971H31v7H17ZM21.77,9.009A1.419,1.419,0,0,1,21.933,9a1.666,1.666,0,0,1,1.288.693,1.034,1.034,0,0,0,1.559,0,1.62,1.62,0,0,1,1.451-.684,2.009,2.009,0,0,1,1.485,1.258,3.384,3.384,0,0,1-.456,3.45l-2.2,2.731a1.33,1.33,0,0,1-2.13,0l-2.2-2.731a3.385,3.385,0,0,1-.456-3.451A2.01,2.01,0,0,1,21.77,9.009ZM8,8c0-.163.045-4,4-4,3.433,0,6.49,3.688,7.08,4.444a4.892,4.892,0,0,0-.592.945C17.094,8.427,14.734,7,13,7a1,1,0,0,0,0,2c1.227,0,3.565,1.432,5,2.5,0,0.166.012,0.333,0.025,0.5H11.2C10.554,11.723,8,10.463,8,8ZM4,20V15a1,1,0,0,1,1-1H15v7H5A1,1,0,0,1,4,20ZM28,44H20V23h8V44ZM44,20a1,1,0,0,1-1,1H33V14H43a1,1,0,0,1,1,1v5ZM5,35a1,1,0,1,1,1,1A1,1,0,0,1,5,35Z"></path></svg>