<svg data-v-fde0c5aa="" xmlns="http://www.w3.org/2000/svg" viewBox="10 100 280 100" class="font"><!----><defs data-v-fde0c5aa=""><!----></defs><rect data-v-fde0c5aa="" fill="#FDF4F1" x="0" y="0" width="300px" height="200px" class="logo-background-square"></rect><defs data-v-fde0c5aa=""><linearGradient data-v-fde0c5aa="" gradientTransform="rotate(25)" id="42f4b97d-dc68-4c05-a55f-564ce69db203" x1="0%" y1="0%" x2="100%" y2="0%"><stop data-v-fde0c5aa="" offset="0%" stop-color="#EB6E00" stop-opacity="1"></stop><stop data-v-fde0c5aa="" offset="100%" stop-color="#F3BCE6" stop-opacity="1"></stop></linearGradient></defs><g data-v-fde0c5aa="" id="9936149c-5d4e-44eb-9fbe-b3472c640de7" fill="url(#42f4b97d-dc68-4c05-a55f-564ce69db203)" transform="matrix(2.998191987454853,0,0,2.998191987454853,38.95063273290833,129.75130845894665)"><path d="M0.35 0.43L0.35 0.67C0.97 0.67 1.16 1.50 1.16 2.37L1.16 8.37C1.16 9.32 0.95 10.05 0.35 10.05L0.35 10.29L4.40 10.29L4.40 10.05C3.79 10.05 3.19 9.95 3.19 8.37L3.19 5.45L3.68 5.45C3.68 5.45 5.84 5.39 6.09 6.89L6.33 6.89L6.33 3.74L6.09 3.74C5.84 5.24 3.68 5.18 3.68 5.18L3.19 5.18L3.19 0.67L3.68 0.67C3.68 0.67 7.48 0.55 7.97 3.09L8.20 3.09L8.20 0.43ZM11.34 8.85C11.21 9.18 10.89 9.56 10.42 9.56C9.51 9.56 9.51 8.64 9.51 8.64C9.51 7.92 9.97 7.27 11.34 6.96C11.34 6.96 11.34 8.82 11.34 8.85ZM13.78 9.56C13.09 9.56 13.10 8.58 13.10 8.58L13.10 6.50C13.10 4.84 12.60 3.70 10.77 3.70C10.77 3.70 10.04 3.64 9.41 3.98C8.64 4.38 8.46 4.76 8.32 5.00C8.18 5.24 8.19 5.57 8.36 5.84C8.61 6.20 9.10 6.29 9.46 6.05C9.83 5.80 9.93 5.31 9.67 4.94C9.55 4.76 9.37 4.66 9.16 4.63C9.06 4.62 9.11 4.38 9.56 4.16C10.53 3.65 11.34 4.38 11.34 5.84L11.34 6.71C8.89 7.32 7.71 7.46 7.71 8.99C7.71 10.42 9.32 10.42 9.32 10.42C10.32 10.42 11.14 9.90 11.35 9.28C11.51 10.42 12.75 10.42 12.75 10.42C13.64 10.42 14.28 9.87 14.39 9.42L14.15 9.32C14.07 9.56 13.78 9.56 13.78 9.56ZM25.44 10.05C24.93 9.93 24.86 9.35 24.86 8.58L24.86 5.82C24.86 4.13 24.19 3.70 23.10 3.70C22.22 3.70 21.27 4.33 20.97 5.18C20.80 4.14 20.20 3.70 19.22 3.70C18.34 3.70 17.49 4.33 17.11 5.14L17.11 3.70L14.66 4.26L14.66 4.49C15.23 4.80 15.36 5.05 15.36 5.54L15.36 8.61C15.36 9.32 15.34 9.90 14.81 10.05L14.81 10.29L17.68 10.29L17.68 10.05C17.19 9.91 17.11 9.38 17.11 8.61L17.11 5.85C17.11 5.35 17.71 4.70 18.23 4.70C18.86 4.70 19.24 5.08 19.24 5.87L19.24 8.58C19.24 9.30 19.21 9.90 18.68 10.05L18.68 10.29L21.56 10.29L21.56 10.05C21.06 9.93 20.99 9.35 20.99 8.58L20.99 5.89L20.99 5.89C20.99 5.33 21.57 4.70 22.09 4.70C22.72 4.70 23.11 5.08 23.11 5.87L23.11 8.58C23.11 9.30 23.09 9.90 22.55 10.05L22.55 10.29L25.44 10.29L25.44 10.05ZM28.45 1.62C28.45 1.09 28.01 0.67 27.48 0.67C26.95 0.67 26.53 1.09 26.53 1.62C26.53 2.16 26.95 2.58 27.48 2.58C28.01 2.58 28.45 2.16 28.45 1.62ZM28.49 8.58L28.49 3.70L26.04 4.26L26.04 4.49C26.61 4.80 26.75 5.00 26.75 5.47L26.75 8.58C26.75 9.30 26.73 9.88 26.19 10.05L26.19 10.29L29.06 10.29L29.06 10.05C28.56 9.91 28.49 9.37 28.49 8.58ZM32.37 8.60L32.37-0.15L29.92 0.36L29.92 0.60C30.48 0.81 30.62 1.02 30.62 1.51L30.62 8.60C30.62 9.31 30.59 9.90 30.06 10.05L30.06 10.29L32.93 10.29L32.93 10.05C32.44 9.93 32.37 9.37 32.37 8.60ZM37.51 3.82L37.51 4.06C39.13 4.05 38.21 6.19 38.21 6.19L37.46 8.08L35.98 4.91C35.98 4.91 35.62 4.06 36.34 4.06L36.34 3.82L33.04 3.82L33.04 4.06C33.25 4.06 33.70 4.06 33.92 4.61C33.92 4.61 35.70 8.41 36.57 10.42L36.04 11.86C35.81 12.45 35.48 12.54 35.42 12.38C35.35 12.14 35.20 11.91 34.94 11.80C34.45 11.58 33.88 11.80 33.66 12.29C33.45 12.78 33.66 13.36 34.15 13.58C34.48 13.73 34.97 13.65 35.22 13.44C35.49 13.23 35.91 12.84 36.27 11.89L38.42 6.24C39.31 4.09 39.96 4.06 40.25 4.06L40.25 3.82ZM50.30 6.37L50.30 6.61C51.10 6.61 51.49 6.68 51.49 8.58C51.49 9.94 51.27 10.18 49.63 10.18C48.06 10.18 47.28 9.21 47.28 5.36C47.28 1.51 48.03 0.55 49.63 0.55C51.30 0.55 52.22 1.26 52.63 3.44L53.10 3.44L53.20 1.05C52.33 0.48 51.09 0.31 49.63 0.31C46.61 0.31 44.72 2.58 44.72 5.36C44.72 8.15 46.61 10.42 49.63 10.42C51.13 10.42 52.42 10.16 53.28 9.83C53.28 6.87 53.47 6.61 54.25 6.61L54.25 6.37ZM57.40 1.62C57.40 1.09 56.97 0.67 56.43 0.67C55.90 0.67 55.48 1.09 55.48 1.62C55.48 2.16 55.90 2.58 56.43 2.58C56.97 2.58 57.40 2.16 57.40 1.62ZM57.44 8.58L57.44 3.70L54.99 4.26L54.99 4.49C55.57 4.80 55.71 5.00 55.71 5.47L55.71 8.58C55.71 9.30 55.68 9.88 55.15 10.05L55.15 10.29L58.02 10.29L58.02 10.05C57.51 9.91 57.44 9.37 57.44 8.58ZM63.71 0.56C63.57 0.32 63-0.14 62.23-0.14C60.54-0.14 59.63 0.59 59.63 3.82L58.72 3.82L58.73 4.06L59.63 4.06L59.63 8.71C59.63 9.42 59.61 9.90 59.08 10.05L59.08 10.29L61.95 10.29L61.95 10.05C61.45 9.91 61.38 9.48 61.38 8.71L61.38 4.06L62.83 4.06L62.87 3.82L61.38 3.82C61.38 0.92 61.71 0.10 62.26 0.10C62.78 0.10 62.99 0.36 62.78 0.39C62.57 0.43 62.38 0.56 62.29 0.77C62.08 1.19 62.24 1.68 62.66 1.89C63.07 2.09 63.57 1.92 63.78 1.51C63.92 1.22 63.88 0.81 63.71 0.56ZM66.99 9.42C66.29 9.42 65.95 9.02 65.95 8.23L65.95 4.06L67.56 4.06L67.62 3.82L65.95 3.82L65.95 1.65L64.20 1.95L64.20 3.82L63.46 3.82L63.50 4.06L64.20 4.06L64.20 8.27C64.20 9.97 64.86 10.42 65.97 10.42C66.91 10.42 67.76 9.72 68.04 9.06L67.83 8.93C67.70 9.14 67.40 9.42 66.99 9.42ZM72.42 6.66L71.01 5.78C69.79 5.01 70.18 3.93 71.09 3.93C72.53 3.93 72.98 5.19 73.16 5.68L73.40 5.68L73.40 4.12C73.40 4.12 72.70 3.70 71.09 3.70C69.69 3.70 69.16 4.40 69.16 4.40C68.39 5.40 68.75 6.54 70.11 7.36L71.53 8.22C72.59 8.92 72.42 10.18 71.43 10.18C69.79 10.18 69.34 8.55 69.13 8.01L68.89 8.01L68.89 9.77C68.89 9.77 69.73 10.42 71.43 10.42C72.86 10.42 73.39 9.66 73.39 9.66C74.09 8.65 73.67 7.43 72.42 6.66Z"></path></g><!----><!----></svg>