<svg data-v-fde0c5aa="" xmlns="http://www.w3.org/2000/svg" viewBox="10 100 280 100" class="iconLeftSlogan"><!----><defs data-v-fde0c5aa=""><!----></defs><rect data-v-fde0c5aa="" fill="#FDF4F1" x="0" y="0" width="300px" height="200px" class="logo-background-square"></rect><defs data-v-fde0c5aa=""><!----></defs><g data-v-fde0c5aa="" id="bcae3936-e6b4-40d1-b484-d5390389e710" fill="#36231D" transform="matrix(2.3793635987556017,0,0,2.3793635987556017,84.57533733529935,123.93064894549609)"><path d="M0.35 0.43L0.35 0.67C0.97 0.67 1.16 1.50 1.16 2.37L1.16 8.37C1.16 9.32 0.95 10.05 0.35 10.05L0.35 10.29L4.40 10.29L4.40 10.05C3.79 10.05 3.19 9.95 3.19 8.37L3.19 5.45L3.68 5.45C3.68 5.45 5.84 5.39 6.09 6.89L6.33 6.89L6.33 3.74L6.09 3.74C5.84 5.24 3.68 5.18 3.68 5.18L3.19 5.18L3.19 0.67L3.68 0.67C3.68 0.67 7.48 0.55 7.97 3.09L8.20 3.09L8.20 0.43ZM11.34 8.85C11.21 9.18 10.89 9.56 10.42 9.56C9.51 9.56 9.51 8.64 9.51 8.64C9.51 7.92 9.97 7.27 11.34 6.96C11.34 6.96 11.34 8.82 11.34 8.85ZM13.78 9.56C13.09 9.56 13.10 8.58 13.10 8.58L13.10 6.50C13.10 4.84 12.60 3.70 10.77 3.70C10.77 3.70 10.04 3.64 9.41 3.98C8.64 4.38 8.46 4.76 8.32 5.00C8.18 5.24 8.19 5.57 8.36 5.84C8.61 6.20 9.10 6.29 9.46 6.05C9.83 5.80 9.93 5.31 9.67 4.94C9.55 4.76 9.37 4.66 9.16 4.63C9.06 4.62 9.11 4.38 9.56 4.16C10.53 3.65 11.34 4.38 11.34 5.84L11.34 6.71C8.89 7.32 7.71 7.46 7.71 8.99C7.71 10.42 9.32 10.42 9.32 10.42C10.32 10.42 11.14 9.90 11.35 9.28C11.51 10.42 12.75 10.42 12.75 10.42C13.64 10.42 14.28 9.87 14.39 9.42L14.15 9.32C14.07 9.56 13.78 9.56 13.78 9.56ZM25.44 10.05C24.93 9.93 24.86 9.35 24.86 8.58L24.86 5.82C24.86 4.13 24.19 3.70 23.10 3.70C22.22 3.70 21.27 4.33 20.97 5.18C20.80 4.14 20.20 3.70 19.22 3.70C18.34 3.70 17.49 4.33 17.11 5.14L17.11 3.70L14.66 4.26L14.66 4.49C15.23 4.80 15.36 5.05 15.36 5.54L15.36 8.61C15.36 9.32 15.34 9.90 14.81 10.05L14.81 10.29L17.68 10.29L17.68 10.05C17.19 9.91 17.11 9.38 17.11 8.61L17.11 5.85C17.11 5.35 17.71 4.70 18.23 4.70C18.86 4.70 19.24 5.08 19.24 5.87L19.24 8.58C19.24 9.30 19.21 9.90 18.68 10.05L18.68 10.29L21.56 10.29L21.56 10.05C21.06 9.93 20.99 9.35 20.99 8.58L20.99 5.89L20.99 5.89C20.99 5.33 21.57 4.70 22.09 4.70C22.72 4.70 23.11 5.08 23.11 5.87L23.11 8.58C23.11 9.30 23.09 9.90 22.55 10.05L22.55 10.29L25.44 10.29L25.44 10.05ZM28.45 1.62C28.45 1.09 28.01 0.67 27.48 0.67C26.95 0.67 26.53 1.09 26.53 1.62C26.53 2.16 26.95 2.58 27.48 2.58C28.01 2.58 28.45 2.16 28.45 1.62ZM28.49 8.58L28.49 3.70L26.04 4.26L26.04 4.49C26.61 4.80 26.75 5.00 26.75 5.47L26.75 8.58C26.75 9.30 26.73 9.88 26.19 10.05L26.19 10.29L29.06 10.29L29.06 10.05C28.56 9.91 28.49 9.37 28.49 8.58ZM32.37 8.60L32.37-0.15L29.92 0.36L29.92 0.60C30.48 0.81 30.62 1.02 30.62 1.51L30.62 8.60C30.62 9.31 30.59 9.90 30.06 10.05L30.06 10.29L32.93 10.29L32.93 10.05C32.44 9.93 32.37 9.37 32.37 8.60ZM37.51 3.82L37.51 4.06C39.13 4.05 38.21 6.19 38.21 6.19L37.46 8.08L35.98 4.91C35.98 4.91 35.62 4.06 36.34 4.06L36.34 3.82L33.04 3.82L33.04 4.06C33.25 4.06 33.70 4.06 33.92 4.61C33.92 4.61 35.70 8.41 36.57 10.42L36.04 11.86C35.81 12.45 35.48 12.54 35.42 12.38C35.35 12.14 35.20 11.91 34.94 11.80C34.45 11.58 33.88 11.80 33.66 12.29C33.45 12.78 33.66 13.36 34.15 13.58C34.48 13.73 34.97 13.65 35.22 13.44C35.49 13.23 35.91 12.84 36.27 11.89L38.42 6.24C39.31 4.09 39.96 4.06 40.25 4.06L40.25 3.82ZM50.30 6.37L50.30 6.61C51.10 6.61 51.49 6.68 51.49 8.58C51.49 9.94 51.27 10.18 49.63 10.18C48.06 10.18 47.28 9.21 47.28 5.36C47.28 1.51 48.03 0.55 49.63 0.55C51.30 0.55 52.22 1.26 52.63 3.44L53.10 3.44L53.20 1.05C52.33 0.48 51.09 0.31 49.63 0.31C46.61 0.31 44.72 2.58 44.72 5.36C44.72 8.15 46.61 10.42 49.63 10.42C51.13 10.42 52.42 10.16 53.28 9.83C53.28 6.87 53.47 6.61 54.25 6.61L54.25 6.37ZM57.40 1.62C57.40 1.09 56.97 0.67 56.43 0.67C55.90 0.67 55.48 1.09 55.48 1.62C55.48 2.16 55.90 2.58 56.43 2.58C56.97 2.58 57.40 2.16 57.40 1.62ZM57.44 8.58L57.44 3.70L54.99 4.26L54.99 4.49C55.57 4.80 55.71 5.00 55.71 5.47L55.71 8.58C55.71 9.30 55.68 9.88 55.15 10.05L55.15 10.29L58.02 10.29L58.02 10.05C57.51 9.91 57.44 9.37 57.44 8.58ZM63.71 0.56C63.57 0.32 63-0.14 62.23-0.14C60.54-0.14 59.63 0.59 59.63 3.82L58.72 3.82L58.73 4.06L59.63 4.06L59.63 8.71C59.63 9.42 59.61 9.90 59.08 10.05L59.08 10.29L61.95 10.29L61.95 10.05C61.45 9.91 61.38 9.48 61.38 8.71L61.38 4.06L62.83 4.06L62.87 3.82L61.38 3.82C61.38 0.92 61.71 0.10 62.26 0.10C62.78 0.10 62.99 0.36 62.78 0.39C62.57 0.43 62.38 0.56 62.29 0.77C62.08 1.19 62.24 1.68 62.66 1.89C63.07 2.09 63.57 1.92 63.78 1.51C63.92 1.22 63.88 0.81 63.71 0.56ZM66.99 9.42C66.29 9.42 65.95 9.02 65.95 8.23L65.95 4.06L67.56 4.06L67.62 3.82L65.95 3.82L65.95 1.65L64.20 1.95L64.20 3.82L63.46 3.82L63.50 4.06L64.20 4.06L64.20 8.27C64.20 9.97 64.86 10.42 65.97 10.42C66.91 10.42 67.76 9.72 68.04 9.06L67.83 8.93C67.70 9.14 67.40 9.42 66.99 9.42ZM72.42 6.66L71.01 5.78C69.79 5.01 70.18 3.93 71.09 3.93C72.53 3.93 72.98 5.19 73.16 5.68L73.40 5.68L73.40 4.12C73.40 4.12 72.70 3.70 71.09 3.70C69.69 3.70 69.16 4.40 69.16 4.40C68.39 5.40 68.75 6.54 70.11 7.36L71.53 8.22C72.59 8.92 72.42 10.18 71.43 10.18C69.79 10.18 69.34 8.55 69.13 8.01L68.89 8.01L68.89 9.77C68.89 9.77 69.73 10.42 71.43 10.42C72.86 10.42 73.39 9.66 73.39 9.66C74.09 8.65 73.67 7.43 72.42 6.66Z"></path></g><defs data-v-fde0c5aa=""><linearGradient data-v-fde0c5aa="" gradientTransform="rotate(25)" id="a1f800ea-53da-4a57-95bf-6a8b44c546a2" x1="0%" y1="0%" x2="100%" y2="0%"><stop data-v-fde0c5aa="" offset="0%" stop-color="#EB6E00" stop-opacity="1"></stop><stop data-v-fde0c5aa="" offset="100%" stop-color="#F3BCE6" stop-opacity="1"></stop></linearGradient></defs><g data-v-fde0c5aa="" id="2c6ee780-d387-4171-98c4-028d3aef6055" stroke="none" fill="url(#a1f800ea-53da-4a57-95bf-6a8b44c546a2)" transform="matrix(0.7190400023450325,0,0,0.7190400023450325,18.545725120460045,114.04649264824639)"><g clip-rule="evenodd"><path d="M58.995 54.206c.186-.361.419-.838.671-1.306 1.434-2.668 3.758-4.083 6.634-4.731 1.332-.3 2.653-.397 3.987.001 1.812.541 3.104 1.682 3.852 3.396.721 1.654.976 3.389.591 5.182-.289 1.343-1.062 2.367-2.121 3.201-1.459 1.148-3.155 1.724-4.955 2.062-.791.148-1.591.303-2.354.554-1.159.384-1.404.983-.808 2.018.793 1.379 2.038 2.197 3.588 2.471 1.014.179 2.931-1.096 3.203-2.098.103-.378.004-.827-.071-1.23-.057-.295-.236-.564-.342-.85-.217-.581-.084-1.005.388-1.299.478-.296.944-.248 1.329.248 1.364 1.77 1.487 4.026-.408 5.659-2.171 1.871-5.513 1.663-7.794-.425-.967-.886-1.651-1.922-1.782-3.261-.109-1.124.339-1.979 1.36-2.435.731-.326 1.526-.506 2.289-.761 1.308-.438 2.675-.756 3.907-1.354 2.706-1.31 3.283-4.889 1.242-7.127-1.925-2.109-4.942-2.446-7.312-.765-1.589 1.128-2.917 2.5-3.723 4.32-.339.767-.603.875-1.445.68-.896-.211-1.79-.437-2.683-.666-2.845-.729-5.688-.723-8.55-.067-1.953.447-3.891.904-5.66 1.901-1.361.768-2.508 1.725-3.305 3.293.84.169 1.568.379 2.31.45 1.374.134 2.756.203 4.136.266.937.043 1.816-.185 2.663-.609.614-.309 1.27-.542 1.922-.763.935-.318 1.802-.155 2.637.382.251.161.629.197.94.176 1.34-.088 2.678-.315 4.015-.307 1.799.012 2.82.908 3.237 2.557.347 1.377-.275 2.4-1.246 3.244a6.644 6.644 0 0 1-1.653 1.043c-2.516 1.118-5.158 1.831-7.915 1.846-2.182.011-4.366-.223-6.549-.343-.309-.018-.617-.015-.924-.015-2.695-.001-5.393.012-8.088-.005-2.394-.014-3.568-.948-4.013-3.274-.202-1.049-.289-2.13-.329-3.2-.203-5.489.707-10.866 1.681-16.237.419-2.318.972-4.583 2.074-6.688 2.416-4.614 6.221-7.125 11.375-7.833 3.294-.453 6.444.001 9.526 1.027 2.415.805 4.441 2.278 6.037 4.287 2.081 2.622 3.389 5.567 3.646 8.935.022.304.037.619-.018.916-.104.545-.594.975-1.1 1.032-.604.068-1.197-.223-1.372-.813-.151-.503-.163-1.054-.194-1.586-.283-4.823-2.564-8.388-6.832-10.605-1.789-.929-3.808-1.184-5.801-1.372-.556-.052-1.193.021-1.785.129-1.323.182-2.399.513-3.667.823-3.882.949-6.465 3.734-8.117 7.27-1.004 2.15-1.375 4.473-1.812 6.773-.59 3.092-1.116 6.189-1.25 9.35-.1 2.388.042 4.746.323 7.106.146 1.21.733 2.005 2.017 2.14.801.083 1.6.213 2.4.237 3.344.098 6.695.061 10.029.276 2.365.152 4.697.219 6.948-.558 1.296-.447 2.514-1.124 3.747-1.738.296-.146.56-.421.755-.695.583-.821.239-1.78-.75-1.939-.628-.101-1.3-.004-1.942.072-.685.084-1.354.295-2.04.364-.89.088-1.754.041-2.485-.641-.21-.197-.633-.24-.951-.223-.334.017-.668.17-.986.3-2.094.858-4.263.89-6.465.629-1.029-.123-2.064-.183-3.093-.301-.495-.058-.987-.16-1.468-.291-1.553-.423-1.836-1.118-1.074-2.537 1.559-2.896 4.057-4.656 7.043-5.834 2.831-1.115 5.768-1.262 8.736-.867 1.969.263 3.917.669 5.994 1.033zM40.832 10.125c.113-.179.221-.444.408-.626 2.217-2.167 4.878-3.34 7.979-3.33 3.716.013 6.686 1.639 8.512 4.833 2.53 4.424 2.376 8.966-.53 13.167-1.739 2.513-4.18 4.33-7.31 4.855-.995.167-2.07.067-3.079-.096-2.994-.484-5.547-1.781-7.322-4.344a7.755 7.755 0 0 1-.643-1.09c-.326-.684-.221-1.195.244-1.405.485-.22 1.002-.036 1.343.531.62 1.028 1.316 1.979 2.306 2.697 1.043.758 2.145 1.358 3.464 1.427.372.02.757.038 1.121-.029 2.097-.383 4.204-.86 5.76-2.421 3.563-3.578 4.85-9.32 1.112-13.634-2.181-2.516-5.566-3.194-8.838-1.755-1.582.696-2.893 1.742-3.877 3.176-.129.19-.25.393-.41.556-.51.518-1.266.429-1.484-.244-.227-.693-.459-1.311-1.219-1.548-.912-.284-1.814-.278-2.703.104-2.436 1.046-3.55 4.033-2.358 6.389.659 1.301 1.743 2.017 3.2 2.137.523.043 1.012.112 1.148.735.168.765-.207 1.25-1.031 1.306-1.879.128-4.498-.871-5.518-3.893-.96-2.845.197-6.193 2.752-7.784 2.141-1.333 4.323-1.492 6.469.047.087.063.197.095.504.239z"></path><path d="M60.753 86.496c.076-2.033.205-4.067.211-6.1.005-2.034-.131-4.067-.176-6.103-.034-1.614-.052-3.23-.018-4.845.011-.527.167-1.063.335-1.57.166-.498.64-.696 1.117-.516.482.183.519.541.437 1.027-.16.938-.307 1.895-.314 2.845-.038 4.151.388 8.272.862 12.391.242 2.094.396 4.2.584 6.3.057.61.153 1.22.145 1.829-.014 1.048-.593 1.677-1.483 1.713-.927.037-1.543-.495-1.621-1.552-.082-1.109-.069-2.229-.068-3.345.001-.69.058-1.381.09-2.071-.035 0-.068-.001-.101-.003zM36.535 73.657c-.279 2.048-.594 4.091-.834 6.144-.25 2.129-.482 4.263-.627 6.4-.145 2.143-.166 4.292-.248 6.438-.031.789-.477 1.27-1.076 1.187-.543-.075-.818-.582-.792-1.315.049-1.342.005-2.688.097-4.027.196-2.865.429-5.729.697-8.588.203-2.172.484-4.338.738-6.505.035-.303.102-.604.176-.9.123-.479.469-.706.938-.683.48.024.773.325.824.802.037.342.008.69.008 1.036l.099.011z"></path></g></g><defs data-v-fde0c5aa=""><!----></defs><g data-v-fde0c5aa="" id="845eb758-2469-4836-90ab-0dbd122e4508" fill="#36231D" transform="matrix(0.6351336026945064,0,0,0.6351336026945064,85.07784519030533,164.6859895310593)"><path d="M0.76 3.64L0.52 3.64L0.52 3.08L3.62 3.08L3.61 3.64L3.30 3.64L3.30 3.64Q2.47 3.64 2.47 3.94L2.47 3.94L2.47 3.94Q2.47 4.03 2.51 4.09L2.51 4.09L4.93 10.76L7.24 4.85L7.14 4.57L7.14 4.57Q7.11 4.52 7.09 4.44L7.09 4.44L7.09 4.44Q7.07 4.36 7.05 4.31L7.05 4.31L7.05 4.31Q7.03 4.25 7.01 4.22L7.01 4.22L7.01 4.22Q6.99 4.16 6.89 3.96L6.89 3.96L6.89 3.96Q6.81 3.80 6.69 3.71L6.69 3.71L6.69 3.71Q6.61 3.64 6.44 3.64L6.44 3.64L5.76 3.64L5.76 3.08L9.08 3.08L9.08 3.64L8.35 3.64L8.35 3.64Q8.11 3.64 8.05 3.68L8.05 3.68L8.05 3.68Q7.98 3.72 7.98 3.86L7.98 3.86L7.98 3.86Q7.98 4.00 8.23 4.76L8.23 4.76L10.27 10.72L12.77 4.18L12.77 4.18Q12.82 4.01 12.82 3.94L12.82 3.94L12.82 3.94Q12.82 3.75 12.65 3.69L12.65 3.69L12.65 3.69Q12.50 3.64 12.14 3.64L12.14 3.64L11.77 3.64L11.77 3.08L14.17 3.08L14.18 3.64L14.01 3.64L14.01 3.64Q13.67 3.64 13.57 3.77L13.57 3.77L13.57 3.77Q13.45 3.96 13.20 4.60L13.20 4.60L10.11 12.64L9.87 12.64L7.49 5.64L4.77 12.63L4.55 12.63L1.58 4.52L1.58 4.52Q1.37 3.96 1.20 3.79L1.20 3.79L1.20 3.79Q1.05 3.63 0.76 3.64L0.76 3.64ZM21.93 3.64L21.92 3.08L29.13 3.08L29.13 3.08Q29.14 4.14 29.20 5.28L29.20 5.28L28.65 5.30L28.65 5.30Q28.64 4.66 28.58 4.25L28.58 4.25L28.58 4.25Q28.54 3.89 28.49 3.80L28.49 3.80L28.49 3.80Q28.43 3.71 28.31 3.69L28.31 3.69L28.31 3.69Q28.22 3.68 27.63 3.68L27.63 3.68L25.25 3.68L25.25 3.68Q24.71 3.68 24.56 3.77L24.56 3.77L24.56 3.77Q24.44 3.86 24.44 4.33L24.44 4.33L24.44 6.28L24.44 6.28Q24.44 6.69 24.49 6.76L24.49 6.76L24.49 6.76Q24.56 6.84 24.90 6.84L24.90 6.84L27.02 6.84L27.02 6.84Q27.38 6.84 27.46 6.73L27.46 6.73L27.46 6.73Q27.54 6.63 27.55 6.14L27.55 6.14L27.55 5.61L28.06 5.63L28.06 8.97L27.55 8.97L27.55 8.24L27.55 8.24Q27.55 7.66 27.47 7.57L27.47 7.57L27.47 7.57Q27.39 7.46 27.04 7.46L27.04 7.46L24.94 7.46L24.94 7.46Q24.61 7.46 24.52 7.54L24.52 7.54L24.52 7.54Q24.44 7.63 24.44 7.89L24.44 7.89L24.44 11.20L24.44 11.20Q24.44 11.57 24.52 11.67L24.52 11.67L24.52 11.67Q24.61 11.77 24.88 11.77L24.88 11.77L24.88 11.77Q27.80 11.75 28.33 11.69L28.33 11.69L28.33 11.69Q28.85 11.63 28.93 11.38L28.93 11.38L28.94 11.36L28.94 11.35L29.17 10.17L29.65 10.25L29.30 12.41L22.20 12.41L22.20 11.87L22.57 11.87L22.57 11.87Q23.13 11.87 23.21 11.80L23.21 11.80L23.21 11.80Q23.30 11.72 23.30 11.33L23.30 11.33L23.30 4.24L23.30 4.24Q23.30 3.82 23.15 3.73L23.15 3.73L23.15 3.73Q22.98 3.64 22.33 3.64L22.33 3.64L21.93 3.64ZM47.48 8.02L47.48 8.02L47.48 8.02Q47.48 6.86 47.95 5.83L47.95 5.83L47.95 5.83Q48.41 4.85 49.16 4.27L49.16 4.27L49.16 4.27Q49.91 3.69 50.80 3.37L50.80 3.37L50.80 3.37Q51.70 3.05 52.54 3.05L52.54 3.05L52.54 3.05Q53.41 3.05 54.08 3.16L54.08 3.16L54.08 3.16Q54.71 3.26 55.00 3.37L55.00 3.37L55.00 3.37Q55.31 3.48 55.34 3.48L55.34 3.48L55.34 3.48Q55.51 3.48 55.54 3.41L55.54 3.41L55.54 3.41Q55.56 3.33 55.56 3.09L55.56 3.09L55.56 2.97L56.10 2.97L56.10 2.97Q56.14 4.30 56.27 5.64L56.27 5.64L55.76 5.65L55.76 5.65Q55.73 5.40 55.72 5.26L55.72 5.26L55.72 5.26Q55.72 5.20 55.71 5.13L55.71 5.13L55.71 5.13Q55.71 5.07 55.70 5.02L55.70 5.02L55.70 5.02Q55.69 4.98 55.69 4.95L55.69 4.95L55.69 4.95Q55.67 4.84 55.67 4.74L55.67 4.74L55.67 4.74Q55.67 4.68 55.62 4.59L55.62 4.59L55.62 4.59Q55.62 4.57 55.59 4.55L55.59 4.55L55.59 4.55Q55.56 4.52 55.56 4.50L55.56 4.50L55.56 4.50Q55.54 4.44 55.47 4.41L55.47 4.41L55.47 4.41Q55.43 4.38 55.40 4.37L55.40 4.37L55.40 4.37Q55.37 4.36 55.34 4.35L55.34 4.35L55.34 4.35Q55.33 4.35 55.31 4.33L55.31 4.33L55.31 4.33Q55.28 4.31 55.24 4.29L55.24 4.29L55.24 4.29Q55.20 4.27 55.16 4.25L55.16 4.25L55.16 4.25Q54.93 4.16 54.91 4.14L54.91 4.14L54.91 4.14Q54.56 3.96 53.92 3.83L53.92 3.83L53.92 3.83Q53.25 3.71 52.58 3.71L52.58 3.71L52.58 3.71Q50.86 3.71 49.77 4.84L49.77 4.84L49.77 4.84Q48.66 5.99 48.67 7.62L48.67 7.62L48.67 7.62Q48.67 9.35 49.88 10.69L49.88 10.69L49.88 10.69Q51.08 12.02 52.90 12.02L52.90 12.02L52.90 12.02Q53.91 12.02 54.85 11.49L54.85 11.49L54.85 11.49Q55.80 10.94 55.83 10.58L55.83 10.58L55.87 9.41L56.36 9.41L56.28 11.45L56.28 11.45Q56.21 11.49 56.08 11.57L56.08 11.57L56.08 11.57Q56.03 11.60 55.56 11.85L55.56 11.85L55.56 11.85Q55.19 12.05 54.74 12.23L54.74 12.23L54.74 12.23Q54.38 12.39 53.73 12.51L53.73 12.51L53.73 12.51Q53.12 12.63 52.55 12.64L52.55 12.64L52.55 12.64Q50.18 12.64 48.82 11.39L48.82 11.39L48.82 11.39Q47.48 10.14 47.48 8.02ZM64.73 3.64L64.34 3.64L64.35 3.08L67.57 3.08L67.57 3.08Q68.71 3.08 69.31 3.21L69.31 3.21L69.31 3.21Q69.95 3.37 70.42 3.75L70.42 3.75L70.42 3.75Q71.42 4.57 71.42 5.71L71.42 5.71L71.42 5.71Q71.42 6.43 70.95 7.04L70.95 7.04L70.95 7.04Q70.46 7.66 69.43 7.92L69.43 7.92L72.11 11.49L72.11 11.49Q72.42 11.87 72.71 11.87L72.71 11.87L73.32 11.87L73.34 12.41L71.31 12.41L68.32 8.10L68.15 8.10L68.15 8.10Q68.11 8.10 68.05 8.11L68.05 8.11L68.05 8.11Q68.00 8.11 67.98 8.11L67.98 8.11L67.98 8.11Q67.10 8.11 66.71 8.03L66.71 8.03L66.71 11.46L66.71 11.46Q66.71 11.76 66.85 11.81L66.85 11.81L66.85 11.81Q66.97 11.87 67.68 11.87L67.68 11.87L68.39 11.87L68.36 12.41L64.63 12.41L64.63 11.87L64.96 11.87L64.96 11.87Q65.42 11.87 65.49 11.81L65.49 11.81L65.49 11.81Q65.57 11.74 65.57 11.46L65.57 11.46L65.57 4.14L65.57 4.14Q65.57 3.82 65.38 3.73L65.38 3.73L65.38 3.73Q65.15 3.64 64.73 3.64L64.73 3.64ZM66.71 4.28L66.71 7.57L66.71 7.57Q66.89 7.70 67.60 7.71L67.60 7.71L67.60 7.71Q68.87 7.71 69.45 7.27L69.45 7.27L69.45 7.27Q70.04 6.84 70.04 5.92L70.04 5.92L70.04 5.92Q70.04 4.92 69.27 4.27L69.27 4.27L69.27 4.27Q68.51 3.64 67.13 3.64L67.13 3.64L67.13 3.64Q66.88 3.64 66.79 3.75L66.79 3.75L66.79 3.75Q66.71 3.84 66.71 4.28L66.71 4.28ZM81.11 3.64L81.09 3.08L88.31 3.08L88.31 3.08Q88.32 4.14 88.38 5.28L88.38 5.28L87.83 5.30L87.83 5.30Q87.81 4.66 87.76 4.25L87.76 4.25L87.76 4.25Q87.72 3.89 87.66 3.80L87.66 3.80L87.66 3.80Q87.61 3.71 87.49 3.69L87.49 3.69L87.49 3.69Q87.40 3.68 86.81 3.68L86.81 3.68L84.43 3.68L84.43 3.68Q83.88 3.68 83.74 3.77L83.74 3.77L83.74 3.77Q83.62 3.86 83.62 4.33L83.62 4.33L83.62 6.28L83.62 6.28Q83.62 6.69 83.67 6.76L83.67 6.76L83.67 6.76Q83.74 6.84 84.08 6.84L84.08 6.84L86.19 6.84L86.19 6.84Q86.56 6.84 86.64 6.73L86.64 6.73L86.64 6.73Q86.72 6.63 86.73 6.14L86.73 6.14L86.73 5.61L87.24 5.63L87.24 8.97L86.73 8.97L86.73 8.24L86.73 8.24Q86.73 7.66 86.65 7.57L86.65 7.57L86.65 7.57Q86.57 7.46 86.22 7.46L86.22 7.46L84.12 7.46L84.12 7.46Q83.79 7.46 83.70 7.54L83.70 7.54L83.70 7.54Q83.62 7.63 83.62 7.89L83.62 7.89L83.62 11.20L83.62 11.20Q83.62 11.57 83.70 11.67L83.70 11.67L83.70 11.67Q83.79 11.77 84.06 11.77L84.06 11.77L84.06 11.77Q86.98 11.75 87.51 11.69L87.51 11.69L87.51 11.69Q88.03 11.63 88.11 11.38L88.11 11.38L88.12 11.36L88.12 11.35L88.35 10.17L88.83 10.25L88.48 12.41L81.38 12.41L81.38 11.87L81.74 11.87L81.74 11.87Q82.30 11.87 82.39 11.80L82.39 11.80L82.39 11.80Q82.48 11.72 82.48 11.33L82.48 11.33L82.48 4.24L82.48 4.24Q82.48 3.82 82.33 3.73L82.33 3.73L82.33 3.73Q82.16 3.64 81.50 3.64L81.50 3.64L81.11 3.64ZM96.71 12.41L96.70 11.87L96.87 11.87L96.87 11.87Q97.26 11.87 97.39 11.73L97.39 11.73L97.39 11.73Q97.51 11.57 97.85 10.83L97.85 10.83L98.76 8.82L99.33 7.53L99.33 7.53Q99.60 6.97 99.64 6.86L99.64 6.86L99.64 6.86Q99.71 6.70 99.76 6.60L99.76 6.60L99.76 6.60Q99.81 6.51 99.83 6.45L99.83 6.45L99.92 6.21L101.35 2.74L101.64 2.74L101.64 2.74Q102.50 4.98 104.69 10.25L104.69 10.25L104.69 10.25Q105.14 11.34 105.33 11.64L105.33 11.64L105.33 11.64Q105.46 11.87 105.90 11.87L105.90 11.87L106.11 11.87L106.10 12.41L102.91 12.41L102.92 11.87L103.34 11.87L103.34 11.87Q103.95 11.87 103.95 11.70L103.95 11.70L103.95 11.70Q103.95 11.63 103.82 11.27L103.82 11.27L102.78 8.72L99.53 8.72L98.42 11.18L98.42 11.18Q98.29 11.50 98.29 11.63L98.29 11.63L98.29 11.63Q98.29 11.79 98.38 11.83L98.38 11.83L98.38 11.83Q98.48 11.87 98.86 11.87L98.86 11.87L99.44 11.87L99.44 12.41L96.71 12.41ZM101.21 4.79L99.80 8.10L102.54 8.10L101.21 4.79ZM114.13 5.35L113.63 5.33L113.63 5.33Q113.75 4.17 113.83 3.08L113.83 3.08L121.91 3.08L121.91 3.08Q121.83 4.13 121.80 4.53L121.80 4.53L121.80 4.53Q121.76 5.26 121.74 5.32L121.74 5.32L121.24 5.30L121.24 5.30Q121.32 4.34 121.32 4.16L121.32 4.16L121.32 4.16Q121.32 3.88 121.18 3.79L121.18 3.79L121.18 3.79Q121.01 3.69 120.61 3.69L120.61 3.69L119 3.69L119 3.69Q118.49 3.69 118.37 3.79L118.37 3.79L118.37 3.79Q118.28 3.87 118.27 4.36L118.27 4.36L118.27 11.22L118.27 11.22Q118.27 11.66 118.41 11.76L118.41 11.76L118.41 11.76Q118.57 11.87 119.08 11.87L119.08 11.87L119.64 11.87L119.66 12.41L115.96 12.40L115.96 11.87L116.18 11.87L116.18 11.87Q116.85 11.87 117.00 11.79L117.00 11.79L117.00 11.79Q117.14 11.70 117.14 11.28L117.14 11.28L117.14 4.48L117.14 4.48Q117.14 3.92 117.04 3.80L117.04 3.80L117.04 3.80Q116.94 3.69 116.52 3.69L116.52 3.69L115.05 3.69L115.05 3.69Q114.86 3.69 114.80 3.71L114.80 3.71L114.80 3.71Q114.73 3.72 114.62 3.72L114.62 3.72L114.62 3.72Q114.59 3.72 114.47 3.79L114.47 3.79L114.47 3.79Q114.39 3.84 114.37 3.86L114.37 3.86L114.37 3.86Q114.34 3.88 114.30 3.99L114.30 3.99L114.30 3.99Q114.27 4.05 114.24 4.14L114.24 4.14L114.24 4.14Q114.21 4.21 114.19 4.36L114.19 4.36L114.19 4.36Q114.17 4.59 114.17 4.61L114.17 4.61L114.17 4.61Q114.17 4.80 114.15 4.95L114.15 4.95L114.15 4.95Q114.15 5.02 114.15 5.15L114.15 5.15L114.15 5.15Q114.14 5.29 114.13 5.35L114.13 5.35ZM129.66 3.64L129.65 3.08L136.86 3.08L136.86 3.08Q136.88 4.14 136.93 5.28L136.93 5.28L136.38 5.30L136.38 5.30Q136.37 4.66 136.32 4.25L136.32 4.25L136.32 4.25Q136.27 3.89 136.22 3.80L136.22 3.80L136.22 3.80Q136.17 3.71 136.05 3.69L136.05 3.69L136.05 3.69Q135.95 3.68 135.37 3.68L135.37 3.68L132.99 3.68L132.99 3.68Q132.44 3.68 132.30 3.77L132.30 3.77L132.30 3.77Q132.17 3.86 132.17 4.33L132.17 4.33L132.17 6.28L132.17 6.28Q132.17 6.69 132.23 6.76L132.23 6.76L132.23 6.76Q132.30 6.84 132.64 6.84L132.64 6.84L134.75 6.84L134.75 6.84Q135.11 6.84 135.19 6.73L135.19 6.73L135.19 6.73Q135.28 6.63 135.28 6.14L135.28 6.14L135.28 5.61L135.80 5.63L135.80 8.97L135.28 8.97L135.28 8.24L135.28 8.24Q135.28 7.66 135.21 7.57L135.21 7.57L135.21 7.57Q135.13 7.46 134.78 7.46L134.78 7.46L132.68 7.46L132.68 7.46Q132.34 7.46 132.26 7.54L132.26 7.54L132.26 7.54Q132.17 7.63 132.17 7.89L132.17 7.89L132.17 11.20L132.17 11.20Q132.17 11.57 132.26 11.67L132.26 11.67L132.26 11.67Q132.34 11.77 132.62 11.77L132.62 11.77L132.62 11.77Q135.54 11.75 136.06 11.69L136.06 11.69L136.06 11.69Q136.58 11.63 136.66 11.38L136.66 11.38L136.67 11.36L136.68 11.35L136.90 10.17L137.38 10.25L137.03 12.41L129.93 12.41L129.93 11.87L130.30 11.87L130.30 11.87Q130.86 11.87 130.94 11.80L130.94 11.80L130.94 11.80Q131.04 11.72 131.04 11.33L131.04 11.33L131.04 4.24L131.04 4.24Q131.04 3.82 130.89 3.73L130.89 3.73L130.89 3.73Q130.72 3.64 130.06 3.64L130.06 3.64L129.66 3.64ZM157.99 12.41L154.97 12.41L154.97 11.87L155.11 11.87L155.11 11.87Q155.70 11.87 155.81 11.77L155.81 11.77L155.81 11.77Q155.93 11.68 155.95 11.21L155.95 11.21L156.08 4.38L156.08 4.38Q156.08 4.35 156.08 4.28L156.08 4.28L156.08 4.28Q156.09 4.21 156.09 4.17L156.09 4.17L156.09 4.01L156.09 4.01Q156.09 3.76 156.02 3.71L156.02 3.71L156.02 3.71Q155.92 3.64 155.70 3.64L155.70 3.64L154.98 3.64L154.97 3.08L157.08 3.08L160.28 10.55L163.41 3.08L165.65 3.08L165.65 3.64L165.18 3.64L165.18 3.64Q164.73 3.64 164.60 3.71L164.60 3.71L164.60 3.71Q164.45 3.79 164.45 4.08L164.45 4.08L164.45 11.22L164.45 11.22Q164.45 11.68 164.56 11.77L164.56 11.77L164.56 11.77Q164.67 11.87 165.30 11.87L165.30 11.87L165.58 11.87L165.59 12.41L162.20 12.41L162.18 11.87L162.46 11.87L162.46 11.87Q163.07 11.87 163.19 11.77L163.19 11.77L163.19 11.77Q163.31 11.66 163.31 11.25L163.31 11.25L163.31 4.83L161.16 9.91L160.30 12.02L160.30 12.02Q160.17 12.37 160.12 12.44L160.12 12.44L160.12 12.44Q160.08 12.51 160.01 12.51L160.01 12.51L160.01 12.51Q159.91 12.51 159.46 11.52L159.46 11.52L156.65 5.01L156.59 11.39L156.59 11.39Q156.59 11.74 156.79 11.80L156.79 11.80L156.79 11.80Q157.03 11.87 157.99 11.87L157.99 11.87L157.99 12.41ZM173.33 3.64L173.32 3.08L180.53 3.08L180.53 3.08Q180.54 4.14 180.60 5.28L180.60 5.28L180.05 5.30L180.05 5.30Q180.04 4.66 179.98 4.25L179.98 4.25L179.98 4.25Q179.94 3.89 179.89 3.80L179.89 3.80L179.89 3.80Q179.83 3.71 179.72 3.69L179.72 3.69L179.72 3.69Q179.62 3.68 179.03 3.68L179.03 3.68L176.65 3.68L176.65 3.68Q176.11 3.68 175.96 3.77L175.96 3.77L175.96 3.77Q175.84 3.86 175.84 4.33L175.84 4.33L175.84 6.28L175.84 6.28Q175.84 6.69 175.90 6.76L175.90 6.76L175.90 6.76Q175.96 6.84 176.31 6.84L176.31 6.84L178.42 6.84L178.42 6.84Q178.78 6.84 178.86 6.73L178.86 6.73L178.86 6.73Q178.94 6.63 178.95 6.14L178.95 6.14L178.95 5.61L179.46 5.63L179.46 8.97L178.95 8.97L178.95 8.24L178.95 8.24Q178.95 7.66 178.88 7.57L178.88 7.57L178.88 7.57Q178.79 7.46 178.45 7.46L178.45 7.46L176.35 7.46L176.35 7.46Q176.01 7.46 175.93 7.54L175.93 7.54L175.93 7.54Q175.84 7.63 175.84 7.89L175.84 7.89L175.84 11.20L175.84 11.20Q175.84 11.57 175.93 11.67L175.93 11.67L175.93 11.67Q176.01 11.77 176.29 11.77L176.29 11.77L176.29 11.77Q179.20 11.75 179.73 11.69L179.73 11.69L179.73 11.69Q180.25 11.63 180.33 11.38L180.33 11.38L180.34 11.36L180.35 11.35L180.57 10.17L181.05 10.25L180.70 12.41L173.60 12.41L173.60 11.87L173.97 11.87L173.97 11.87Q174.53 11.87 174.61 11.80L174.61 11.80L174.61 11.80Q174.71 11.72 174.71 11.33L174.71 11.33L174.71 4.24L174.71 4.24Q174.71 3.82 174.56 3.73L174.56 3.73L174.56 3.73Q174.38 3.64 173.73 3.64L173.73 3.64L173.33 3.64ZM192.09 12.41L189.07 12.41L189.07 11.87L189.21 11.87L189.21 11.87Q189.79 11.87 189.91 11.77L189.91 11.77L189.91 11.77Q190.03 11.68 190.05 11.21L190.05 11.21L190.18 4.38L190.18 4.38Q190.18 4.35 190.18 4.28L190.18 4.28L190.18 4.28Q190.19 4.21 190.19 4.17L190.19 4.17L190.19 4.01L190.19 4.01Q190.19 3.76 190.11 3.71L190.11 3.71L190.11 3.71Q190.02 3.64 189.79 3.64L189.79 3.64L189.08 3.64L189.07 3.08L191.18 3.08L194.37 10.55L197.51 3.08L199.75 3.08L199.75 3.64L199.27 3.64L199.27 3.64Q198.82 3.64 198.70 3.71L198.70 3.71L198.70 3.71Q198.54 3.79 198.54 4.08L198.54 4.08L198.54 11.22L198.54 11.22Q198.54 11.68 198.66 11.77L198.66 11.77L198.66 11.77Q198.77 11.87 199.40 11.87L199.40 11.87L199.68 11.87L199.69 12.41L196.29 12.41L196.27 11.87L196.55 11.87L196.55 11.87Q197.17 11.87 197.29 11.77L197.29 11.77L197.29 11.77Q197.41 11.66 197.41 11.25L197.41 11.25L197.41 4.83L195.25 9.91L194.40 12.02L194.40 12.02Q194.26 12.37 194.22 12.44L194.22 12.44L194.22 12.44Q194.17 12.51 194.11 12.51L194.11 12.51L194.11 12.51Q194.01 12.51 193.56 11.52L193.56 11.52L190.75 5.01L190.69 11.39L190.69 11.39Q190.69 11.74 190.89 11.80L190.89 11.80L190.89 11.80Q191.13 11.87 192.09 11.87L192.09 11.87L192.09 12.41ZM207.80 7.83L207.80 7.83L207.80 7.83Q207.80 6.62 208.20 5.68L208.20 5.68L208.20 5.68Q208.62 4.72 209.31 4.12L209.31 4.12L209.31 4.12Q210 3.51 210.86 3.19L210.86 3.19L210.86 3.19Q211.70 2.88 212.65 2.88L212.65 2.88L212.65 2.88Q213.91 2.88 214.96 3.40L214.96 3.40L214.96 3.40Q216.04 3.93 216.75 5.07L216.75 5.07L216.75 5.07Q217.45 6.17 217.46 7.75L217.46 7.75L217.46 7.75Q217.46 8.70 217.15 9.54L217.15 9.54L217.15 9.54Q216.84 10.38 216.24 11.10L216.24 11.10L216.24 11.10Q215.63 11.81 214.70 12.22L214.70 12.22L214.70 12.22Q213.73 12.63 212.54 12.64L212.54 12.64L212.54 12.64Q211.41 12.64 210.47 12.23L210.47 12.23L210.47 12.23Q209.54 11.83 208.97 11.14L208.97 11.14L208.97 11.14Q208.40 10.45 208.11 9.60L208.11 9.60L208.11 9.60Q207.80 8.72 207.80 7.83ZM209.06 7.38L209.06 7.38L209.06 7.38Q209.06 8.52 209.49 9.60L209.49 9.60L209.49 9.60Q209.89 10.64 210.82 11.33L210.82 11.33L210.82 11.33Q211.73 12.03 212.92 12.04L212.92 12.04L212.92 12.04Q214.29 12.04 215.23 11.01L215.23 11.01L215.23 11.01Q216.18 9.97 216.18 8.10L216.18 8.10L216.18 8.10Q216.18 5.99 215.02 4.72L215.02 4.72L215.02 4.72Q213.87 3.46 212.36 3.45L212.36 3.45L212.36 3.45Q211.84 3.45 211.30 3.65L211.30 3.65L211.30 3.65Q210.75 3.85 210.25 4.25L210.25 4.25L210.25 4.25Q209.70 4.68 209.38 5.48L209.38 5.48L209.38 5.48Q209.06 6.27 209.06 7.38ZM225.91 3.64L225.52 3.64L225.53 3.08L228.75 3.08L228.75 3.08Q229.89 3.08 230.49 3.21L230.49 3.21L230.49 3.21Q231.13 3.37 231.59 3.75L231.59 3.75L231.59 3.75Q232.60 4.57 232.60 5.71L232.60 5.71L232.60 5.71Q232.60 6.43 232.13 7.04L232.13 7.04L232.13 7.04Q231.64 7.66 230.60 7.92L230.60 7.92L233.29 11.49L233.29 11.49Q233.60 11.87 233.89 11.87L233.89 11.87L234.49 11.87L234.52 12.41L232.49 12.41L229.50 8.10L229.33 8.10L229.33 8.10Q229.28 8.10 229.23 8.11L229.23 8.11L229.23 8.11Q229.17 8.11 229.16 8.11L229.16 8.11L229.16 8.11Q228.28 8.11 227.88 8.03L227.88 8.03L227.88 11.46L227.88 11.46Q227.88 11.76 228.03 11.81L228.03 11.81L228.03 11.81Q228.15 11.87 228.85 11.87L228.85 11.87L229.56 11.87L229.54 12.41L225.81 12.41L225.81 11.87L226.13 11.87L226.13 11.87Q226.60 11.87 226.67 11.81L226.67 11.81L226.67 11.81Q226.75 11.74 226.75 11.46L226.75 11.46L226.75 4.14L226.75 4.14Q226.75 3.82 226.56 3.73L226.56 3.73L226.56 3.73Q226.33 3.64 225.91 3.64L225.91 3.64ZM227.88 4.28L227.88 7.57L227.88 7.57Q228.07 7.70 228.78 7.71L228.78 7.71L228.78 7.71Q230.05 7.71 230.63 7.27L230.63 7.27L230.63 7.27Q231.22 6.84 231.22 5.92L231.22 5.92L231.22 5.92Q231.22 4.92 230.45 4.27L230.45 4.27L230.45 4.27Q229.69 3.64 228.31 3.64L228.31 3.64L228.31 3.64Q228.05 3.64 227.97 3.75L227.97 3.75L227.97 3.75Q227.89 3.84 227.88 4.28L227.88 4.28ZM242.86 3.64L242.27 3.64L242.29 3.08L245.80 3.08L245.80 3.64L245.57 3.64L245.57 3.64Q245.02 3.64 244.85 3.73L244.85 3.73L244.85 3.73Q244.71 3.81 244.71 4.28L244.71 4.28L244.71 11.22L244.71 11.22Q244.71 11.68 244.82 11.77L244.82 11.77L244.82 11.77Q244.93 11.87 245.46 11.87L245.46 11.87L246.01 11.87L246.03 12.41L242.44 12.41L242.43 11.87L242.79 11.87L242.79 11.87Q243.35 11.87 243.47 11.77L243.47 11.77L243.47 11.77Q243.58 11.67 243.58 11.25L243.58 11.25L243.58 4.14L243.58 4.14Q243.58 3.77 243.48 3.71L243.48 3.71L243.48 3.71Q243.37 3.64 242.86 3.64L242.86 3.64ZM253.78 3.64L253.76 3.08L260.98 3.08L260.98 3.08Q260.99 4.14 261.04 5.28L261.04 5.28L260.50 5.30L260.50 5.30Q260.48 4.66 260.43 4.25L260.43 4.25L260.43 4.25Q260.39 3.89 260.33 3.80L260.33 3.80L260.33 3.80Q260.28 3.71 260.16 3.69L260.16 3.69L260.16 3.69Q260.07 3.68 259.48 3.68L259.48 3.68L257.10 3.68L257.10 3.68Q256.55 3.68 256.41 3.77L256.41 3.77L256.41 3.77Q256.29 3.86 256.29 4.33L256.29 4.33L256.29 6.28L256.29 6.28Q256.29 6.69 256.34 6.76L256.34 6.76L256.34 6.76Q256.41 6.84 256.75 6.84L256.75 6.84L258.86 6.84L258.86 6.84Q259.23 6.84 259.31 6.73L259.31 6.73L259.31 6.73Q259.39 6.63 259.40 6.14L259.40 6.14L259.40 5.61L259.91 5.63L259.91 8.97L259.40 8.97L259.40 8.24L259.40 8.24Q259.40 7.66 259.32 7.57L259.32 7.57L259.32 7.57Q259.24 7.46 258.89 7.46L258.89 7.46L256.79 7.46L256.79 7.46Q256.46 7.46 256.37 7.54L256.37 7.54L256.37 7.54Q256.29 7.63 256.29 7.89L256.29 7.89L256.29 11.20L256.29 11.20Q256.29 11.57 256.37 11.67L256.37 11.67L256.37 11.67Q256.46 11.77 256.73 11.77L256.73 11.77L256.73 11.77Q259.65 11.75 260.18 11.69L260.18 11.69L260.18 11.69Q260.70 11.63 260.78 11.38L260.78 11.38L260.78 11.36L260.79 11.35L261.02 10.17L261.50 10.25L261.15 12.41L254.04 12.41L254.04 11.87L254.41 11.87L254.41 11.87Q254.97 11.87 255.06 11.80L255.06 11.80L255.06 11.80Q255.15 11.72 255.15 11.33L255.15 11.33L255.15 4.24L255.15 4.24Q255.15 3.82 255.00 3.73L255.00 3.73L255.00 3.73Q254.83 3.64 254.17 3.64L254.17 3.64L253.78 3.64ZM269.34 10.04L269.34 10.04L269.83 9.98L270.02 10.85L270.02 10.85Q270.13 11.33 270.20 11.41L270.20 11.41L270.20 11.41Q270.27 11.49 270.68 11.64L270.68 11.64L270.68 11.64Q271.52 11.95 272.41 11.95L272.41 11.95L272.41 11.95Q273.20 11.95 273.74 11.49L273.74 11.49L273.74 11.49Q274.27 11.04 274.27 10.26L274.27 10.26L274.27 10.26Q274.27 9.65 273.81 9.21L273.81 9.21L273.81 9.21Q273.33 8.76 272.48 8.30L272.48 8.30L271.91 7.98L271.91 7.98Q271.16 7.55 270.93 7.36L270.93 7.36L270.93 7.36Q270.57 7.08 270.26 6.59L270.26 6.59L270.26 6.59Q269.94 6.10 269.94 5.46L269.94 5.46L269.94 5.46Q269.94 4.39 270.79 3.68L270.79 3.68L270.79 3.68Q271.63 2.97 272.73 2.97L272.73 2.97L272.73 2.97Q273.01 2.97 273.36 3.04L273.36 3.04L273.36 3.04Q273.56 3.08 273.90 3.17L273.90 3.17L274.13 3.25L274.13 3.25Q274.23 3.25 274.27 3.16L274.27 3.16L274.27 3.16Q274.33 3.05 274.33 2.98L274.33 2.98L274.34 2.88L274.82 2.85L275.03 5.41L274.52 5.43L274.40 4.18L274.40 4.18Q273.66 3.62 272.49 3.62L272.49 3.62L272.49 3.62Q271.85 3.62 271.35 4.05L271.35 4.05L271.35 4.05Q270.87 4.47 270.87 5.12L270.87 5.12L270.87 5.12Q270.87 5.72 271.32 6.17L271.32 6.17L271.32 6.17Q271.75 6.60 272.62 7.08L272.62 7.08L273.39 7.50L273.39 7.50Q274.34 8.03 274.87 8.59L274.87 8.59L274.87 8.59Q275.41 9.15 275.41 9.92L275.41 9.92L275.41 9.92Q275.41 10.99 274.55 11.76L274.55 11.76L274.55 11.76Q273.68 12.54 272.23 12.54L272.23 12.54L272.23 12.54Q271.67 12.54 271.16 12.41L271.16 12.41L271.16 12.41Q270.66 12.29 270.61 12.29L270.61 12.29L270.61 12.29Q270.35 12.29 270.35 12.58L270.35 12.58L270.37 12.76L269.89 12.80L269.89 12.80Q269.83 12.41 269.34 10.04Z"></path></g></svg>