<svg data-v-fde0c5aa="" xmlns="http://www.w3.org/2000/svg" viewBox="10 100 280 100" class="iconLeftSlogan"><!----><defs data-v-fde0c5aa=""><!----></defs><rect data-v-fde0c5aa="" fill="none" x="0" y="0" width="300px" height="200px" class="logo-background-square"></rect><defs data-v-fde0c5aa=""><!----></defs><g data-v-fde0c5aa="" id="77cb0cd8-3d88-4f1f-99ef-25d63921375f" fill="#000000" transform="matrix(2.566418195767121,0,0,2.566418195767121,86.71544347075454,114.79777287701198)"><path d="M6.45 4.31L6.48 6.08L6.48 6.08Q6.48 6.12 6.41 6.13L6.41 6.13L6.41 6.13Q6.33 6.13 6.31 6.09L6.31 6.09L6.31 6.09Q6.22 5.32 5.77 4.92L5.77 4.92L5.77 4.92Q5.32 4.52 4.59 4.52L4.59 4.52L3.88 4.52L3.88 4.52Q3.28 4.52 3.06 4.69L3.06 4.69L3.06 4.69Q2.84 4.86 2.84 5.33L2.84 5.33L2.84 8.39L4.13 8.39L4.13 8.39Q4.89 8.39 5.24 8.13L5.24 8.13L5.24 8.13Q5.60 7.88 5.60 7.38L5.60 7.38L5.60 7.38Q5.60 7.35 5.68 7.35L5.68 7.35L5.68 7.35Q5.77 7.35 5.77 7.38L5.77 7.38L5.75 8.55L5.75 8.55Q5.75 8.97 5.77 9.18L5.77 9.18L5.78 9.88L5.78 9.88Q5.78 9.91 5.70 9.91L5.70 9.91L5.70 9.91Q5.61 9.91 5.61 9.88L5.61 9.88L5.61 9.88Q5.61 9.28 5.25 8.99L5.25 8.99L5.25 8.99Q4.89 8.71 4.09 8.71L4.09 8.71L2.84 8.71L2.84 11.75L2.84 11.75Q2.84 12.19 2.96 12.40L2.96 12.40L2.96 12.40Q3.08 12.60 3.42 12.68L3.42 12.68L3.42 12.68Q3.75 12.77 4.48 12.77L4.48 12.77L4.48 12.77Q4.51 12.77 4.51 12.85L4.51 12.85L4.51 12.85Q4.51 12.94 4.48 12.94L4.48 12.94L4.48 12.94Q3.91 12.94 3.58 12.92L3.58 12.92L2.27 12.91L1.29 12.92L1.29 12.92Q1.02 12.94 0.55 12.94L0.55 12.94L0.55 12.94Q0.52 12.94 0.52 12.85L0.52 12.85L0.52 12.85Q0.52 12.77 0.55 12.77L0.55 12.77L0.55 12.77Q1.06 12.77 1.31 12.70L1.31 12.70L1.31 12.70Q1.55 12.63 1.64 12.43L1.64 12.43L1.64 12.43Q1.72 12.22 1.72 11.80L1.72 11.80L1.72 5.32L1.72 5.32Q1.72 4.90 1.64 4.70L1.64 4.70L1.64 4.70Q1.55 4.51 1.32 4.43L1.32 4.43L1.32 4.43Q1.09 4.35 0.60 4.35L0.60 4.35L0.60 4.35Q0.56 4.35 0.56 4.27L0.56 4.27L0.56 4.27Q0.56 4.19 0.60 4.19L0.60 4.19L6.31 4.19L6.31 4.19Q6.45 4.19 6.45 4.31L6.45 4.31ZM12.99 12.18L13.01 12.18L13.01 12.18Q13.06 12.18 13.08 12.24L13.08 12.24L13.08 12.24Q13.10 12.31 13.05 12.33L13.05 12.33L11.61 13.02L11.61 13.02Q11.55 13.05 11.48 13.05L11.48 13.05L11.48 13.05Q11.30 13.05 11.14 12.82L11.14 12.82L11.14 12.82Q10.98 12.59 10.92 12.18L10.92 12.18L10.12 12.61L10.12 12.61Q9.32 13.03 8.79 13.03L8.79 13.03L8.79 13.03Q8.36 13.03 8.11 12.80L8.11 12.80L8.11 12.80Q7.87 12.57 7.87 12.19L7.87 12.19L7.87 12.19Q7.87 11.79 8.17 11.56L8.17 11.56L8.17 11.56Q8.47 11.34 9.28 11.06L9.28 11.06L10.89 10.50L10.89 9.37L10.89 9.37Q10.89 8.47 10.68 8.09L10.68 8.09L10.68 8.09Q10.46 7.70 10.05 7.70L10.05 7.70L10.05 7.70Q9.62 7.70 9.37 8.02L9.37 8.02L9.37 8.02Q9.13 8.33 9.07 8.83L9.07 8.83L9.07 8.83Q9.02 9.45 8.46 9.45L8.46 9.45L8.46 9.45Q8.20 9.45 8.06 9.32L8.06 9.32L8.06 9.32Q7.92 9.20 7.92 8.97L7.92 8.97L7.92 8.97Q7.92 8.64 8.37 8.27L8.37 8.27L8.37 8.27Q8.81 7.90 9.42 7.65L9.42 7.65L9.42 7.65Q10.04 7.41 10.53 7.41L10.53 7.41L10.53 7.41Q11.12 7.41 11.48 7.79L11.48 7.79L11.48 7.79Q11.84 8.18 11.84 8.95L11.84 8.95L11.84 11.42L11.84 11.42Q11.84 11.89 11.98 12.11L11.98 12.11L11.98 12.11Q12.11 12.33 12.39 12.33L12.39 12.33L12.39 12.33Q12.64 12.33 12.99 12.18L12.99 12.18ZM10.25 12.31L10.89 11.97L10.89 11.83L10.89 10.70L9.66 11.16L9.66 11.16Q9.32 11.28 9.18 11.45L9.18 11.45L9.18 11.45Q9.03 11.61 9.03 11.84L9.03 11.84L9.03 11.84Q9.03 12.14 9.20 12.31L9.20 12.31L9.20 12.31Q9.37 12.47 9.63 12.47L9.63 12.47L9.63 12.47Q9.94 12.47 10.25 12.31L10.25 12.31ZM23.53 12.77L23.53 12.77Q23.58 12.77 23.58 12.85L23.58 12.85L23.58 12.85Q23.58 12.94 23.53 12.94L23.53 12.94L23.53 12.94Q23.18 12.94 22.99 12.92L22.99 12.92L22.20 12.91L21.43 12.92L21.43 12.92Q21.22 12.94 20.89 12.94L20.89 12.94L20.89 12.94Q20.86 12.94 20.86 12.85L20.86 12.85L20.86 12.85Q20.86 12.77 20.89 12.77L20.89 12.77L20.89 12.77Q21.41 12.77 21.57 12.58L21.57 12.58L21.57 12.58Q21.74 12.39 21.74 11.80L21.74 11.80L21.74 9.65L21.74 9.65Q21.74 8.83 21.46 8.45L21.46 8.45L21.46 8.45Q21.17 8.06 20.58 8.06L20.58 8.06L20.58 8.06Q20.17 8.06 19.77 8.27L19.77 8.27L19.77 8.27Q19.36 8.48 19.05 8.85L19.05 8.85L19.05 9.03L19.05 11.80L19.05 11.80Q19.05 12.39 19.22 12.58L19.22 12.58L19.22 12.58Q19.38 12.77 19.89 12.77L19.89 12.77L19.89 12.77Q19.94 12.77 19.94 12.85L19.94 12.85L19.94 12.85Q19.94 12.94 19.89 12.94L19.89 12.94L19.89 12.94Q19.56 12.94 19.35 12.92L19.35 12.92L18.58 12.91L17.81 12.92L17.81 12.92Q17.60 12.94 17.26 12.94L17.26 12.94L17.26 12.94Q17.22 12.94 17.22 12.85L17.22 12.85L17.22 12.85Q17.22 12.77 17.26 12.77L17.26 12.77L17.26 12.77Q17.77 12.77 17.93 12.58L17.93 12.58L17.93 12.58Q18.10 12.39 18.10 11.80L18.10 11.80L18.10 9.65L18.10 9.65Q18.10 8.83 17.82 8.45L17.82 8.45L17.82 8.45Q17.54 8.06 16.95 8.06L16.95 8.06L16.95 8.06Q16.56 8.06 16.17 8.26L16.17 8.26L16.17 8.26Q15.78 8.46 15.46 8.81L15.46 8.81L15.46 11.80L15.46 11.80Q15.46 12.39 15.62 12.58L15.62 12.58L15.62 12.58Q15.78 12.77 16.30 12.77L16.30 12.77L16.30 12.77Q16.34 12.77 16.34 12.85L16.34 12.85L16.34 12.85Q16.34 12.94 16.30 12.94L16.30 12.94L16.30 12.94Q15.96 12.94 15.75 12.92L15.75 12.92L14.98 12.91L14.20 12.92L14.20 12.92Q14.00 12.94 13.66 12.94L13.66 12.94L13.66 12.94Q13.62 12.94 13.62 12.85L13.62 12.85L13.62 12.85Q13.62 12.77 13.66 12.77L13.66 12.77L13.66 12.77Q14.17 12.77 14.33 12.58L14.33 12.58L14.33 12.58Q14.49 12.39 14.49 11.80L14.49 11.80L14.49 9.07L14.49 9.07Q14.49 8.61 14.39 8.41L14.39 8.41L14.39 8.41Q14.28 8.20 14.03 8.20L14.03 8.20L14.03 8.20Q13.76 8.20 13.29 8.40L13.29 8.40L13.26 8.40L13.26 8.40Q13.22 8.40 13.20 8.33L13.20 8.33L13.20 8.33Q13.17 8.26 13.22 8.25L13.22 8.25L14.95 7.42L14.95 7.42Q14.98 7.41 15.04 7.41L15.04 7.41L15.04 7.41Q15.18 7.41 15.31 7.72L15.31 7.72L15.31 7.72Q15.44 8.04 15.46 8.54L15.46 8.54L15.46 8.54Q16.42 7.38 17.51 7.38L17.51 7.38L17.51 7.38Q18.14 7.38 18.54 7.69L18.54 7.69L18.54 7.69Q18.93 8.01 19.03 8.61L19.03 8.61L19.03 8.61Q20.05 7.38 21.15 7.38L21.15 7.38L21.15 7.38Q21.90 7.38 22.30 7.81L22.30 7.81L22.30 7.81Q22.69 8.25 22.69 9.10L22.69 9.10L22.69 11.80L22.69 11.80Q22.69 12.21 22.76 12.41L22.76 12.41L22.76 12.41Q22.82 12.61 23.00 12.69L23.00 12.69L23.00 12.69Q23.17 12.77 23.53 12.77L23.53 12.77ZM24.50 12.94L24.50 12.94Q24.46 12.94 24.46 12.85L24.46 12.85L24.46 12.85Q24.46 12.77 24.50 12.77L24.50 12.77L24.50 12.77Q25.00 12.77 25.17 12.58L25.17 12.58L25.17 12.58Q25.34 12.39 25.34 11.80L25.34 11.80L25.34 9.23L25.34 9.23Q25.34 8.72 25.24 8.50L25.24 8.50L25.24 8.50Q25.14 8.29 24.89 8.29L24.89 8.29L24.89 8.29Q24.65 8.29 24.29 8.47L24.29 8.47L24.28 8.47L24.28 8.47Q24.22 8.47 24.19 8.39L24.19 8.39L24.19 8.39Q24.16 8.32 24.22 8.30L24.22 8.30L26.12 7.42L26.18 7.41L26.18 7.41Q26.22 7.41 26.27 7.45L26.27 7.45L26.27 7.45Q26.32 7.49 26.32 7.55L26.32 7.55L26.32 7.55Q26.32 7.64 26.31 8.11L26.31 8.11L26.31 8.11Q26.29 8.57 26.29 9.20L26.29 9.20L26.29 11.80L26.29 11.80Q26.29 12.39 26.45 12.58L26.45 12.58L26.45 12.58Q26.61 12.77 27.13 12.77L27.13 12.77L27.13 12.77Q27.17 12.77 27.17 12.85L27.17 12.85L27.17 12.85Q27.17 12.94 27.13 12.94L27.13 12.94L27.13 12.94Q26.80 12.94 26.59 12.92L26.59 12.92L25.82 12.91L25.05 12.92L25.05 12.92Q24.84 12.94 24.50 12.94L24.50 12.94ZM25.73 5.85L25.73 5.85Q25.41 5.85 25.22 5.67L25.22 5.67L25.22 5.67Q25.03 5.49 25.03 5.17L25.03 5.17L25.03 5.17Q25.03 4.86 25.22 4.68L25.22 4.68L25.22 4.68Q25.41 4.51 25.73 4.51L25.73 4.51L25.73 4.51Q26.04 4.51 26.21 4.68L26.21 4.68L26.21 4.68Q26.39 4.86 26.39 5.17L26.39 5.17L26.39 5.17Q26.39 5.49 26.21 5.67L26.21 5.67L26.21 5.67Q26.04 5.85 25.73 5.85L25.73 5.85ZM28.13 12.94L28.13 12.94Q28.10 12.94 28.10 12.85L28.10 12.85L28.10 12.85Q28.10 12.77 28.13 12.77L28.13 12.77L28.13 12.77Q28.64 12.77 28.80 12.58L28.80 12.58L28.80 12.58Q28.97 12.39 28.97 11.80L28.97 11.80L28.98 4.61L28.98 4.61Q28.98 4.10 28.88 3.88L28.88 3.88L28.88 3.88Q28.78 3.67 28.55 3.67L28.55 3.67L28.55 3.67Q28.31 3.67 27.94 3.85L27.94 3.85L27.92 3.85L27.92 3.85Q27.87 3.85 27.85 3.78L27.85 3.78L27.85 3.78Q27.82 3.71 27.86 3.70L27.86 3.70L29.74 2.80L29.79 2.79L29.79 2.79Q29.85 2.79 29.90 2.83L29.90 2.83L29.90 2.83Q29.96 2.87 29.96 2.93L29.96 2.93L29.96 11.80L29.96 11.80Q29.96 12.39 30.12 12.58L30.12 12.58L30.12 12.58Q30.28 12.77 30.79 12.77L30.79 12.77L30.79 12.77Q30.84 12.77 30.84 12.85L30.84 12.85L30.84 12.85Q30.84 12.94 30.79 12.94L30.79 12.94L30.79 12.94Q30.46 12.94 30.27 12.92L30.27 12.92L29.46 12.91L28.67 12.92L28.67 12.92Q28.48 12.94 28.13 12.94L28.13 12.94ZM37.32 7.53L37.32 7.53Q37.37 7.53 37.37 7.62L37.37 7.62L37.37 7.62Q37.37 7.70 37.32 7.70L37.32 7.70L37.32 7.70Q36.93 7.70 36.66 7.99L36.66 7.99L36.66 7.99Q36.39 8.27 36.16 8.90L36.16 8.90L34.50 13.33L34.50 13.33Q33.99 14.67 33.53 15.44L33.53 15.44L33.53 15.44Q33.07 16.21 32.59 16.54L32.59 16.54L32.59 16.54Q32.10 16.87 31.50 16.87L31.50 16.87L31.50 16.87Q31.16 16.87 30.95 16.72L30.95 16.72L30.95 16.72Q30.74 16.56 30.74 16.28L30.74 16.28L30.74 16.28Q30.74 16.04 30.89 15.91L30.89 15.91L30.89 15.91Q31.04 15.78 31.25 15.78L31.25 15.78L31.25 15.78Q31.43 15.78 31.54 15.83L31.54 15.83L31.54 15.83Q31.65 15.88 31.81 15.96L31.81 15.96L31.81 15.96Q31.96 16.04 32.05 16.09L32.05 16.09L32.05 16.09Q32.14 16.13 32.30 16.13L32.30 16.13L32.30 16.13Q32.63 16.13 32.92 15.85L32.92 15.85L32.92 15.85Q33.21 15.57 33.53 14.92L33.53 14.92L33.53 14.92Q33.85 14.27 34.30 13.08L34.30 13.08L32.13 8.69L32.13 8.69Q31.81 8.08 31.64 7.89L31.64 7.89L31.64 7.89Q31.47 7.70 31.21 7.70L31.21 7.70L31.21 7.70Q31.18 7.70 31.18 7.62L31.18 7.62L31.18 7.62Q31.18 7.53 31.21 7.53L31.21 7.53L31.72 7.55L31.72 7.55Q31.91 7.56 32.23 7.56L32.23 7.56L33.14 7.55L33.14 7.55Q33.35 7.53 33.71 7.53L33.71 7.53L33.71 7.53Q33.74 7.53 33.74 7.62L33.74 7.62L33.74 7.62Q33.74 7.70 33.71 7.70L33.71 7.70L33.71 7.70Q33.33 7.70 33.14 7.77L33.14 7.77L33.14 7.77Q32.94 7.84 32.94 8.01L32.94 8.01L32.94 8.01Q32.94 8.12 33.01 8.25L33.01 8.25L34.79 11.90L35.83 8.93L35.83 8.93Q35.94 8.57 35.94 8.37L35.94 8.37L35.94 8.37Q35.94 8.02 35.69 7.86L35.69 7.86L35.69 7.86Q35.45 7.70 34.93 7.70L34.93 7.70L34.93 7.70Q34.90 7.70 34.90 7.62L34.90 7.62L34.90 7.62Q34.90 7.53 34.93 7.53L34.93 7.53L34.93 7.53Q35.31 7.53 35.50 7.55L35.50 7.55L36.34 7.56L36.88 7.55L36.88 7.55Q37.02 7.53 37.32 7.53L37.32 7.53ZM46.26 13.10L46.26 13.10Q44.73 13.10 43.60 12.52L43.60 12.52L43.60 12.52Q42.46 11.93 41.86 10.92L41.86 10.92L41.86 10.92Q41.26 9.91 41.26 8.67L41.26 8.67L41.26 8.67Q41.26 7.31 41.95 6.26L41.95 6.26L41.95 6.26Q42.64 5.21 43.86 4.62L43.86 4.62L43.86 4.62Q45.07 4.03 46.58 4.03L46.58 4.03L46.58 4.03Q47.25 4.03 47.89 4.16L47.89 4.16L47.89 4.16Q48.52 4.28 48.93 4.49L48.93 4.49L48.93 4.49Q49.04 4.56 49.07 4.62L49.07 4.62L49.07 4.62Q49.10 4.68 49.11 4.82L49.11 4.82L49.29 6.51L49.29 6.51Q49.29 6.55 49.22 6.56L49.22 6.56L49.22 6.56Q49.14 6.57 49.13 6.52L49.13 6.52L49.13 6.52Q48.76 5.49 47.94 4.93L47.94 4.93L47.94 4.93Q47.11 4.37 45.95 4.37L45.95 4.37L45.95 4.37Q44.30 4.37 43.40 5.38L43.40 5.38L43.40 5.38Q42.50 6.38 42.50 8.15L42.50 8.15L42.50 8.15Q42.50 9.52 43.04 10.59L43.04 10.59L43.04 10.59Q43.57 11.66 44.50 12.26L44.50 12.26L44.50 12.26Q45.43 12.87 46.61 12.87L46.61 12.87L46.61 12.87Q47.28 12.87 47.64 12.74L47.64 12.74L47.64 12.74Q48.01 12.61 48.17 12.25L48.17 12.25L48.17 12.25Q48.34 11.89 48.34 11.17L48.34 11.17L48.34 11.17Q48.34 10.44 48.25 10.16L48.25 10.16L48.25 10.16Q48.16 9.87 47.86 9.77L47.86 9.77L47.86 9.77Q47.56 9.67 46.82 9.67L46.82 9.67L46.82 9.67Q46.73 9.67 46.73 9.56L46.73 9.56L46.73 9.56Q46.73 9.52 46.75 9.48L46.75 9.48L46.75 9.48Q46.77 9.45 46.80 9.45L46.80 9.45L46.80 9.45Q47.92 9.52 48.62 9.52L48.62 9.52L48.62 9.52Q49.28 9.52 50.02 9.48L50.02 9.48L50.02 9.48Q50.05 9.48 50.07 9.51L50.07 9.51L50.07 9.51Q50.09 9.55 50.09 9.58L50.09 9.58L50.09 9.58Q50.09 9.67 50.02 9.67L50.02 9.67L50.02 9.67Q49.71 9.66 49.59 9.77L49.59 9.77L49.59 9.77Q49.46 9.87 49.43 10.19L49.43 10.19L49.43 10.19Q49.39 10.51 49.39 11.31L49.39 11.31L49.39 11.31Q49.39 11.94 49.44 12.21L49.44 12.21L49.44 12.21Q49.49 12.47 49.49 12.54L49.49 12.54L49.49 12.54Q49.49 12.63 49.46 12.65L49.46 12.65L49.46 12.65Q49.42 12.67 49.32 12.71L49.32 12.71L49.32 12.71Q47.60 13.10 46.26 13.10L46.26 13.10ZM51.28 12.94L51.28 12.94Q51.24 12.94 51.24 12.85L51.24 12.85L51.24 12.85Q51.24 12.77 51.28 12.77L51.28 12.77L51.28 12.77Q51.79 12.77 51.95 12.58L51.95 12.58L51.95 12.58Q52.12 12.39 52.12 11.80L52.12 11.80L52.12 9.23L52.12 9.23Q52.12 8.72 52.02 8.50L52.02 8.50L52.02 8.50Q51.93 8.29 51.67 8.29L51.67 8.29L51.67 8.29Q51.44 8.29 51.07 8.47L51.07 8.47L51.06 8.47L51.06 8.47Q51.00 8.47 50.97 8.39L50.97 8.39L50.97 8.39Q50.95 8.32 51.00 8.30L51.00 8.30L52.91 7.42L52.96 7.41L52.96 7.41Q53.00 7.41 53.05 7.45L53.05 7.45L53.05 7.45Q53.10 7.49 53.10 7.55L53.10 7.55L53.10 7.55Q53.10 7.64 53.09 8.11L53.09 8.11L53.09 8.11Q53.07 8.57 53.07 9.20L53.07 9.20L53.07 11.80L53.07 11.80Q53.07 12.39 53.24 12.58L53.24 12.58L53.24 12.58Q53.40 12.77 53.91 12.77L53.91 12.77L53.91 12.77Q53.96 12.77 53.96 12.85L53.96 12.85L53.96 12.85Q53.96 12.94 53.91 12.94L53.91 12.94L53.91 12.94Q53.58 12.94 53.37 12.92L53.37 12.92L52.60 12.91L51.83 12.92L51.83 12.92Q51.62 12.94 51.28 12.94L51.28 12.94ZM52.51 5.85L52.51 5.85Q52.19 5.85 52.00 5.67L52.00 5.67L52.00 5.67Q51.81 5.49 51.81 5.17L51.81 5.17L51.81 5.17Q51.81 4.86 52.00 4.68L52.00 4.68L52.00 4.68Q52.19 4.51 52.51 4.51L52.51 4.51L52.51 4.51Q52.82 4.51 53.00 4.68L53.00 4.68L53.00 4.68Q53.17 4.86 53.17 5.17L53.17 5.17L53.17 5.17Q53.17 5.49 53.00 5.67L53.00 5.67L53.00 5.67Q52.82 5.85 52.51 5.85L52.51 5.85ZM58.84 2.77L58.84 2.77Q59.58 2.77 60.03 2.99L60.03 2.99L60.03 2.99Q60.48 3.21 60.48 3.54L60.48 3.54L60.48 3.54Q60.48 3.79 60.31 3.93L60.31 3.93L60.31 3.93Q60.14 4.06 59.92 4.06L59.92 4.06L59.92 4.06Q59.70 4.06 59.56 3.96L59.56 3.96L59.56 3.96Q59.43 3.85 59.29 3.63L59.29 3.63L59.29 3.63Q59.11 3.33 58.89 3.19L58.89 3.19L58.89 3.19Q58.67 3.04 58.34 3.04L58.34 3.04L58.34 3.04Q57.58 3.04 57.13 3.96L57.13 3.96L57.13 3.96Q56.69 4.89 56.69 6.79L56.69 6.79L56.69 7.69L56.69 7.69Q57.57 7.64 58.41 7.55L58.41 7.55L58.41 7.55Q58.45 7.55 58.48 7.64L58.48 7.64L58.48 7.64Q58.51 7.74 58.51 7.87L58.51 7.87L58.51 7.87Q58.51 7.98 58.46 8.11L58.46 8.11L58.46 8.11Q58.41 8.23 58.37 8.22L58.37 8.22L58.37 8.22Q57.58 8.04 56.69 8.01L56.69 8.01L56.69 11.80L56.69 11.80Q56.69 12.24 56.78 12.43L56.78 12.43L56.78 12.43Q56.87 12.63 57.15 12.70L57.15 12.70L57.15 12.70Q57.43 12.77 58.03 12.77L58.03 12.77L58.03 12.77Q58.07 12.77 58.07 12.85L58.07 12.85L58.07 12.85Q58.07 12.94 58.03 12.94L58.03 12.94L57.09 12.92L57.09 12.92Q56.80 12.91 56.20 12.91L56.20 12.91L55.38 12.92L55.38 12.92Q55.17 12.94 54.80 12.94L54.80 12.94L54.80 12.94Q54.75 12.94 54.75 12.85L54.75 12.85L54.75 12.85Q54.75 12.77 54.80 12.77L54.80 12.77L54.80 12.77Q55.20 12.77 55.39 12.70L55.39 12.70L55.39 12.70Q55.58 12.63 55.65 12.43L55.65 12.43L55.65 12.43Q55.72 12.22 55.72 11.80L55.72 11.80L55.72 8.65L55.72 8.65Q55.72 8.32 55.65 8.16L55.65 8.16L55.65 8.16Q55.58 8.01 55.38 7.96L55.38 7.96L55.38 7.96Q55.19 7.91 54.74 7.91L54.74 7.91L54.74 7.91Q54.70 7.91 54.70 7.81L54.70 7.81L54.70 7.81Q54.70 7.71 54.74 7.71L54.74 7.71L54.74 7.71Q55.29 7.71 55.49 7.58L55.49 7.58L55.49 7.58Q55.69 7.45 55.71 7.08L55.71 7.08L55.71 7.08Q55.78 4.80 56.55 3.79L56.55 3.79L56.55 3.79Q57.32 2.77 58.84 2.77L58.84 2.77ZM63.03 12.14L63.06 12.12L63.06 12.12Q63.11 12.12 63.14 12.19L63.14 12.19L63.14 12.19Q63.17 12.25 63.13 12.28L63.13 12.28L63.13 12.28Q62.61 12.71 62.17 12.91L62.17 12.91L62.17 12.91Q61.74 13.10 61.26 13.10L61.26 13.10L61.26 13.10Q60.68 13.10 60.28 12.83L60.28 12.83L60.28 12.83Q59.88 12.56 59.88 11.91L59.88 11.91L59.88 8.68L59.88 8.68Q59.88 8.19 59.75 8.05L59.75 8.05L59.75 8.05Q59.61 7.91 59.15 7.91L59.15 7.91L59.15 7.91Q59.11 7.91 59.11 7.80L59.11 7.80L59.11 7.80Q59.11 7.70 59.15 7.70L59.15 7.70L59.15 7.70Q59.77 7.69 60.14 7.40L60.14 7.40L60.14 7.40Q60.52 7.11 60.63 6.61L60.63 6.61L60.63 6.61Q60.65 6.57 60.75 6.57L60.75 6.57L60.75 6.57Q60.84 6.57 60.84 6.61L60.84 6.61L60.84 7.69L60.84 7.69Q61.53 7.67 62.75 7.55L62.75 7.55L62.75 7.55Q62.79 7.55 62.82 7.64L62.82 7.64L62.82 7.64Q62.85 7.74 62.85 7.87L62.85 7.87L62.85 7.87Q62.85 7.99 62.80 8.11L62.80 8.11L62.80 8.11Q62.76 8.23 62.71 8.22L62.71 8.22L62.71 8.22Q61.82 8.04 60.84 8.01L60.84 8.01L60.84 11.44L60.84 11.44Q60.84 12.00 61.12 12.27L61.12 12.27L61.12 12.27Q61.40 12.54 61.92 12.54L61.92 12.54L61.92 12.54Q62.54 12.54 63.03 12.14L63.03 12.14ZM64.86 8.33L64.86 8.33Q64.86 8.79 65.18 9.09L65.18 9.09L65.18 9.09Q65.49 9.38 66.08 9.69L66.08 9.69L66.08 9.69Q66.58 9.95 66.86 10.14L66.86 10.14L66.86 10.14Q67.13 10.33 67.33 10.63L67.33 10.63L67.33 10.63Q67.52 10.92 67.52 11.35L67.52 11.35L67.52 11.35Q67.52 12.07 66.98 12.58L66.98 12.58L66.98 12.58Q66.44 13.09 65.51 13.09L65.51 13.09L65.51 13.09Q64.78 13.09 64.13 12.68L64.13 12.68L64.13 12.68Q64.05 12.60 64.05 12.52L64.05 12.52L64.02 11.33L64.02 11.33Q64.02 11.28 64.10 11.28L64.10 11.28L64.10 11.28Q64.18 11.27 64.19 11.31L64.19 11.31L64.19 11.31Q64.44 12.01 64.90 12.42L64.90 12.42L64.90 12.42Q65.35 12.82 65.91 12.82L65.91 12.82L65.91 12.82Q66.30 12.82 66.52 12.63L66.52 12.63L66.52 12.63Q66.74 12.43 66.74 12.05L66.74 12.05L66.74 12.05Q66.74 11.66 66.57 11.39L66.57 11.39L66.57 11.39Q66.40 11.12 66.16 10.96L66.16 10.96L66.16 10.96Q65.91 10.79 65.49 10.57L65.49 10.57L65.49 10.57Q65.03 10.35 64.76 10.16L64.76 10.16L64.76 10.16Q64.48 9.98 64.30 9.69L64.30 9.69L64.30 9.69Q64.11 9.39 64.11 8.95L64.11 8.95L64.11 8.95Q64.11 8.16 64.68 7.76L64.68 7.76L64.68 7.76Q65.25 7.36 66.05 7.36L66.05 7.36L66.05 7.36Q66.60 7.36 67.12 7.57L67.12 7.57L67.12 7.57Q67.24 7.62 67.24 7.73L67.24 7.73L67.24 7.73Q67.24 8.04 67.23 8.20L67.23 8.20L67.21 8.83L67.21 8.83Q67.21 8.86 67.13 8.86L67.13 8.86L67.13 8.86Q67.05 8.86 67.05 8.83L67.05 8.83L67.05 8.83Q67.05 8.55 66.82 8.27L66.82 8.27L66.82 8.27Q66.60 7.99 66.26 7.82L66.26 7.82L66.26 7.82Q65.91 7.64 65.56 7.64L65.56 7.64L65.56 7.64Q65.24 7.64 65.05 7.80L65.05 7.80L65.05 7.80Q64.86 7.97 64.86 8.33L64.86 8.33Z"></path></g><defs data-v-fde0c5aa=""><linearGradient data-v-fde0c5aa="" gradientTransform="rotate(25)" id="7d9dcfda-d05d-4250-b513-707110432334" x1="0%" y1="0%" x2="100%" y2="0%"><stop data-v-fde0c5aa="" offset="0%" stop-color="#FF4CC2" stop-opacity="1"></stop><stop data-v-fde0c5aa="" offset="100%" stop-color="#4ca5ff" stop-opacity="1"></stop></linearGradient></defs><g data-v-fde0c5aa="" id="95f625ea-6809-44aa-ade4-2e451a92a104" stroke="none" fill="url(#7d9dcfda-d05d-4250-b513-707110432334)" transform="matrix(0.7776551832058192,0,0,0.7776551832058192,16.79680128006176,111.11561073746306)"><g clip-rule="evenodd"><path d="M58.995 54.206c.186-.361.419-.838.671-1.306 1.434-2.668 3.758-4.083 6.634-4.731 1.332-.3 2.653-.397 3.987.001 1.812.541 3.104 1.682 3.852 3.396.721 1.654.976 3.389.591 5.182-.289 1.343-1.062 2.367-2.121 3.201-1.459 1.148-3.155 1.724-4.955 2.062-.791.148-1.591.303-2.354.554-1.159.384-1.404.983-.808 2.018.793 1.379 2.038 2.197 3.588 2.471 1.014.179 2.931-1.096 3.203-2.098.103-.378.004-.827-.071-1.23-.057-.295-.236-.564-.342-.85-.217-.581-.084-1.005.388-1.299.478-.296.944-.248 1.329.248 1.364 1.77 1.487 4.026-.408 5.659-2.171 1.871-5.513 1.663-7.794-.425-.967-.886-1.651-1.922-1.782-3.261-.109-1.124.339-1.979 1.36-2.435.731-.326 1.526-.506 2.289-.761 1.308-.438 2.675-.756 3.907-1.354 2.706-1.31 3.283-4.889 1.242-7.127-1.925-2.109-4.942-2.446-7.312-.765-1.589 1.128-2.917 2.5-3.723 4.32-.339.767-.603.875-1.445.68-.896-.211-1.79-.437-2.683-.666-2.845-.729-5.688-.723-8.55-.067-1.953.447-3.891.904-5.66 1.901-1.361.768-2.508 1.725-3.305 3.293.84.169 1.568.379 2.31.45 1.374.134 2.756.203 4.136.266.937.043 1.816-.185 2.663-.609.614-.309 1.27-.542 1.922-.763.935-.318 1.802-.155 2.637.382.251.161.629.197.94.176 1.34-.088 2.678-.315 4.015-.307 1.799.012 2.82.908 3.237 2.557.347 1.377-.275 2.4-1.246 3.244a6.644 6.644 0 0 1-1.653 1.043c-2.516 1.118-5.158 1.831-7.915 1.846-2.182.011-4.366-.223-6.549-.343-.309-.018-.617-.015-.924-.015-2.695-.001-5.393.012-8.088-.005-2.394-.014-3.568-.948-4.013-3.274-.202-1.049-.289-2.13-.329-3.2-.203-5.489.707-10.866 1.681-16.237.419-2.318.972-4.583 2.074-6.688 2.416-4.614 6.221-7.125 11.375-7.833 3.294-.453 6.444.001 9.526 1.027 2.415.805 4.441 2.278 6.037 4.287 2.081 2.622 3.389 5.567 3.646 8.935.022.304.037.619-.018.916-.104.545-.594.975-1.1 1.032-.604.068-1.197-.223-1.372-.813-.151-.503-.163-1.054-.194-1.586-.283-4.823-2.564-8.388-6.832-10.605-1.789-.929-3.808-1.184-5.801-1.372-.556-.052-1.193.021-1.785.129-1.323.182-2.399.513-3.667.823-3.882.949-6.465 3.734-8.117 7.27-1.004 2.15-1.375 4.473-1.812 6.773-.59 3.092-1.116 6.189-1.25 9.35-.1 2.388.042 4.746.323 7.106.146 1.21.733 2.005 2.017 2.14.801.083 1.6.213 2.4.237 3.344.098 6.695.061 10.029.276 2.365.152 4.697.219 6.948-.558 1.296-.447 2.514-1.124 3.747-1.738.296-.146.56-.421.755-.695.583-.821.239-1.78-.75-1.939-.628-.101-1.3-.004-1.942.072-.685.084-1.354.295-2.04.364-.89.088-1.754.041-2.485-.641-.21-.197-.633-.24-.951-.223-.334.017-.668.17-.986.3-2.094.858-4.263.89-6.465.629-1.029-.123-2.064-.183-3.093-.301-.495-.058-.987-.16-1.468-.291-1.553-.423-1.836-1.118-1.074-2.537 1.559-2.896 4.057-4.656 7.043-5.834 2.831-1.115 5.768-1.262 8.736-.867 1.969.263 3.917.669 5.994 1.033zM40.832 10.125c.113-.179.221-.444.408-.626 2.217-2.167 4.878-3.34 7.979-3.33 3.716.013 6.686 1.639 8.512 4.833 2.53 4.424 2.376 8.966-.53 13.167-1.739 2.513-4.18 4.33-7.31 4.855-.995.167-2.07.067-3.079-.096-2.994-.484-5.547-1.781-7.322-4.344a7.755 7.755 0 0 1-.643-1.09c-.326-.684-.221-1.195.244-1.405.485-.22 1.002-.036 1.343.531.62 1.028 1.316 1.979 2.306 2.697 1.043.758 2.145 1.358 3.464 1.427.372.02.757.038 1.121-.029 2.097-.383 4.204-.86 5.76-2.421 3.563-3.578 4.85-9.32 1.112-13.634-2.181-2.516-5.566-3.194-8.838-1.755-1.582.696-2.893 1.742-3.877 3.176-.129.19-.25.393-.41.556-.51.518-1.266.429-1.484-.244-.227-.693-.459-1.311-1.219-1.548-.912-.284-1.814-.278-2.703.104-2.436 1.046-3.55 4.033-2.358 6.389.659 1.301 1.743 2.017 3.2 2.137.523.043 1.012.112 1.148.735.168.765-.207 1.25-1.031 1.306-1.879.128-4.498-.871-5.518-3.893-.96-2.845.197-6.193 2.752-7.784 2.141-1.333 4.323-1.492 6.469.047.087.063.197.095.504.239z"></path><path d="M60.753 86.496c.076-2.033.205-4.067.211-6.1.005-2.034-.131-4.067-.176-6.103-.034-1.614-.052-3.23-.018-4.845.011-.527.167-1.063.335-1.57.166-.498.64-.696 1.117-.516.482.183.519.541.437 1.027-.16.938-.307 1.895-.314 2.845-.038 4.151.388 8.272.862 12.391.242 2.094.396 4.2.584 6.3.057.61.153 1.22.145 1.829-.014 1.048-.593 1.677-1.483 1.713-.927.037-1.543-.495-1.621-1.552-.082-1.109-.069-2.229-.068-3.345.001-.69.058-1.381.09-2.071-.035 0-.068-.001-.101-.003zM36.535 73.657c-.279 2.048-.594 4.091-.834 6.144-.25 2.129-.482 4.263-.627 6.4-.145 2.143-.166 4.292-.248 6.438-.031.789-.477 1.27-1.076 1.187-.543-.075-.818-.582-.792-1.315.049-1.342.005-2.688.097-4.027.196-2.865.429-5.729.697-8.588.203-2.172.484-4.338.738-6.505.035-.303.102-.604.176-.9.123-.479.469-.706.938-.683.48.024.773.325.824.802.037.342.008.69.008 1.036l.099.011z"></path></g></g><defs data-v-fde0c5aa=""><!----></defs><g data-v-fde0c5aa="" id="fa4f881d-bf75-48e1-bd03-7fc268f4d01b" fill="#000000" transform="matrix(0.6267085402066458,0,0,0.6267085402066458,87.98731002864837,166.27579394329678)"><path d="M0.10 3.51C0.10 3.75 0.21 3.77 0.38 3.77L0.88 3.77C0.97 3.77 3.11 10.99 3.14 11.07C3.49 12.14 3.60 12.99 3.91 12.99C4.13 12.99 4.23 12.67 4.51 12.26C4.66 12.05 4.76 12.01 4.90 11.66L6.89 6.45C6.96 6.29 6.99 6.20 7.01 6.20C7.04 6.20 7.07 6.29 7.11 6.45C7.71 8.51 8.39 11.03 8.40 11.07C8.75 12.14 8.86 12.99 9.17 12.99C9.39 12.99 9.49 12.67 9.77 12.26C9.93 12.05 10.02 12.01 10.16 11.66L13.26 4.06C13.36 3.81 13.36 3.77 13.72 3.77C13.96 3.77 14.01 3.71 14.01 3.53C14.01 3.32 13.97 3.26 13.78 3.26C13.64 3.26 13.33 3.30 12.82 3.30C12.08 3.30 11.58 3.26 11.38 3.26C11.20 3.26 11.10 3.28 11.10 3.51C11.10 3.75 11.21 3.77 11.38 3.77L12.29 3.77C12.36 3.77 12.38 3.81 12.38 3.95C12.38 4.63 10.78 8.72 10.07 10.63C9.93 10.99 9.86 11.17 9.81 11.17C9.76 11.17 9.70 10.99 9.58 10.60C9.49 10.30 8.57 7.18 8.04 5.22C7.99 5.05 7.78 4.17 7.78 3.85C7.78 3.81 7.78 3.79 7.80 3.77L8.68 3.77C8.86 3.77 8.96 3.75 8.96 3.56C8.96 3.32 8.92 3.26 8.72 3.26C8.40 3.26 7.46 3.30 7.04 3.30C6.62 3.30 5.71 3.26 5.49 3.26C5.31 3.26 5.21 3.28 5.21 3.51C5.21 3.75 5.32 3.77 5.49 3.77L6.29 3.77C6.33 3.77 6.51 4.27 6.66 4.83C6.72 5.05 6.76 5.15 6.76 5.25C6.76 5.31 6.76 5.38 6.72 5.49L4.72 10.60C4.62 10.82 4.59 10.95 4.55 10.95C4.51 10.95 4.48 10.84 4.40 10.60C4.31 10.32 3.30 7.27 2.70 5.22C2.66 5.08 2.34 3.96 2.32 3.85C2.34 3.77 2.38 3.77 2.42 3.77L3.12 3.77C3.35 3.77 3.42 3.75 3.42 3.56C3.42 3.32 3.37 3.26 3.18 3.26C2.86 3.26 2.14 3.30 1.72 3.30C1.30 3.30 0.60 3.26 0.38 3.26C0.20 3.26 0.10 3.28 0.10 3.51ZM21.63 12.39C21.63 12.63 21.66 12.68 21.85 12.68C22.18 12.68 23.14 12.64 23.56 12.64C23.98 12.64 28.49 12.68 28.81 12.68C28.94 12.68 29.09 12.66 29.09 12.49C29.09 12.07 29.13 11.23 29.13 10.53C29.13 10.39 28.98 10.39 28.85 10.39C28.74 10.39 28.62 10.39 28.62 10.51C28.60 11.06 28.60 11.41 28.57 11.76C28.55 12.01 28.55 12.04 28.45 12.04C28.29 12.04 25.66 12.08 24.16 12.08C24.09 12.08 24.05 10.11 24.01 8.26C24.01 8.06 24.05 8.09 24.19 8.09L26.47 8.09C27.17 8.09 27.20 8.20 27.20 8.30L27.20 9.00C27.20 9.14 27.38 9.14 27.50 9.14C27.59 9.14 27.72 9.13 27.72 9.02C27.72 8.83 27.69 8.33 27.69 7.83C27.69 7.32 27.72 6.83 27.72 6.71C27.72 6.59 27.58 6.58 27.48 6.58C27.37 6.58 27.20 6.59 27.20 6.72L27.20 7.45C27.20 7.62 26.75 7.63 26.47 7.63L24.14 7.63C24.02 7.63 24.01 7.63 24.01 7.45C24.00 6.75 23.98 6.06 23.98 5.46C23.98 5.12 23.98 3.71 24.07 3.71C25.30 3.71 27.80 3.75 27.80 3.81C27.80 3.99 27.76 4.83 27.76 4.89C27.76 5.04 27.83 5.10 28.01 5.10C28.21 5.10 28.28 5.08 28.28 4.94C28.28 3.85 28.34 3.36 28.34 3.09C28.34 2.91 28.25 2.90 28.06 2.90C27.86 2.90 27.86 2.95 27.83 3.11C27.82 3.25 27.89 3.25 26.98 3.25C26.36 3.25 24.22 3.29 23.45 3.29C22.96 3.29 22.02 3.25 21.92 3.25C21.80 3.25 21.74 3.30 21.74 3.49C21.74 3.72 21.81 3.74 21.98 3.74L22.64 3.74C22.69 3.74 22.76 4.79 22.76 5.71C22.76 5.80 22.82 8.27 22.82 9.83L22.82 11.17C22.82 11.84 22.79 12.18 22.76 12.18L21.91 12.18C21.69 12.18 21.63 12.21 21.63 12.39ZM46.97 7.91C46.97 11.31 49.34 12.87 51.93 12.87C53.70 12.87 55.48 11.90 55.52 11.59C55.69 10.29 55.75 9.70 55.75 9.66C55.75 9.56 55.71 9.52 55.54 9.51C55.48 9.51 55.43 9.49 55.38 9.49C55.27 9.49 55.22 9.53 55.19 9.70L55.01 11.33C54.99 11.45 53.89 12.24 52.32 12.24C50.19 12.24 48.48 10.29 48.48 7.94C48.48 5.42 49.91 3.54 51.91 3.54C53.76 3.54 55.10 5.01 55.10 5.17C55.10 5.29 55.05 6.40 55.05 6.45C55.05 6.59 55.09 6.64 55.36 6.64C55.55 6.64 55.62 6.62 55.62 6.44C55.62 5.73 55.68 3.92 55.68 3.67C55.68 3.47 55.57 3.44 55.36 3.44C55.13 3.44 55.10 3.50 55.10 3.67L55.10 4.05C55.10 4.16 55.06 4.16 54.94 4.06C54.66 3.86 53.68 3.04 52.01 3.04C49.17 3.04 46.97 4.96 46.97 7.91ZM64.13 3.51C64.13 3.72 64.20 3.79 64.40 3.79L65.21 3.77C65.31 3.77 65.35 6.61 65.35 8.55L65.35 10.42C65.35 11.30 65.34 12.18 65.30 12.18L64.69 12.18C64.47 12.18 64.40 12.19 64.40 12.39C64.40 12.63 64.44 12.68 64.64 12.68C64.76 12.68 65.59 12.64 66.01 12.64C66.43 12.64 67.20 12.68 67.52 12.68C67.69 12.68 67.72 12.61 67.72 12.40C67.72 12.24 67.69 12.18 67.52 12.18L66.71 12.18C66.64 12.18 66.56 9.18 66.56 8.37C66.56 8.30 66.56 8.26 66.67 8.26C67.06 8.26 67.66 8.27 67.96 8.27C70.20 8.32 70.34 10.00 70.34 11.68L70.34 12.49C70.34 12.61 70.39 12.64 70.49 12.64C70.49 12.64 71.93 12.68 72.41 12.68C72.58 12.68 72.63 12.64 72.63 12.53C72.63 12.24 72.58 12.18 72.42 12.18L71.78 12.18C71.68 12.18 71.65 12.14 71.62 11.31C71.54 8.99 70.17 8.34 69.26 8.05C69.12 8.01 69.15 8.01 69.26 7.95C69.85 7.69 71.16 6.94 71.16 5.63C71.16 3.63 69.47 3.21 68.07 3.21C67.75 3.21 66.46 3.29 66.04 3.29C65.62 3.29 64.64 3.26 64.41 3.26C64.23 3.26 64.13 3.28 64.13 3.51ZM66.56 7.80L66.56 4.40C66.56 4.05 66.58 3.68 66.63 3.68C66.84 3.65 67.12 3.65 67.34 3.65C68.64 3.65 69.89 4.47 69.89 5.82C69.89 6.99 69.34 7.57 68.68 7.88C68.64 7.90 68.60 7.90 68.53 7.90C68.05 7.88 67.34 7.88 66.74 7.87C66.57 7.87 66.56 7.85 66.56 7.80ZM80.11 12.39C80.11 12.63 80.14 12.68 80.33 12.68C80.65 12.68 81.62 12.64 82.04 12.64C82.46 12.64 86.97 12.68 87.29 12.68C87.42 12.68 87.57 12.66 87.57 12.49C87.57 12.07 87.61 11.23 87.61 10.53C87.61 10.39 87.46 10.39 87.33 10.39C87.22 10.39 87.09 10.39 87.09 10.51C87.08 11.06 87.08 11.41 87.05 11.76C87.02 12.01 87.02 12.04 86.93 12.04C86.77 12.04 84.14 12.08 82.64 12.08C82.57 12.08 82.53 10.11 82.49 8.26C82.49 8.06 82.53 8.09 82.67 8.09L84.95 8.09C85.65 8.09 85.68 8.20 85.68 8.30L85.68 9.00C85.68 9.14 85.86 9.14 85.97 9.14C86.07 9.14 86.20 9.13 86.20 9.02C86.20 8.83 86.17 8.33 86.17 7.83C86.17 7.32 86.20 6.83 86.20 6.71C86.20 6.59 86.06 6.58 85.96 6.58C85.85 6.58 85.68 6.59 85.68 6.72L85.68 7.45C85.68 7.62 85.23 7.63 84.95 7.63L82.61 7.63C82.50 7.63 82.49 7.63 82.49 7.45C82.47 6.75 82.46 6.06 82.46 5.46C82.46 5.12 82.46 3.71 82.54 3.71C83.78 3.71 86.28 3.75 86.28 3.81C86.28 3.99 86.24 4.83 86.24 4.89C86.24 5.04 86.31 5.10 86.49 5.10C86.69 5.10 86.76 5.08 86.76 4.94C86.76 3.85 86.81 3.36 86.81 3.09C86.81 2.91 86.73 2.90 86.53 2.90C86.34 2.90 86.34 2.95 86.31 3.11C86.30 3.25 86.37 3.25 85.46 3.25C84.84 3.25 82.70 3.29 81.93 3.29C81.44 3.29 80.50 3.25 80.40 3.25C80.28 3.25 80.22 3.30 80.22 3.49C80.22 3.72 80.29 3.74 80.46 3.74L81.12 3.74C81.17 3.74 81.24 4.79 81.24 5.71C81.24 5.80 81.30 8.27 81.30 9.83L81.30 11.17C81.30 11.84 81.27 12.18 81.24 12.18L80.39 12.18C80.16 12.18 80.11 12.21 80.11 12.39ZM95.44 12.39C95.44 12.63 95.44 12.68 95.63 12.68C95.80 12.68 96.12 12.64 96.70 12.64C97.31 12.64 97.86 12.68 98.01 12.68C98.18 12.68 98.18 12.61 98.18 12.40C98.18 12.24 98.18 12.18 98.01 12.18L96.94 12.18C96.94 12.18 96.92 12.18 96.92 12.17C96.94 11.87 97.71 9.90 98.06 9.02C98.13 8.83 98.14 8.79 98.35 8.79L101.18 8.79C101.32 8.79 101.32 8.81 101.39 9.03C101.65 9.77 102.37 11.89 102.37 12.17C102.37 12.18 102.35 12.18 102.35 12.18L101.58 12.18C101.36 12.18 101.35 12.19 101.35 12.39C101.35 12.63 101.36 12.68 101.53 12.68C101.85 12.68 102.72 12.64 103.14 12.64C103.56 12.64 104.23 12.68 104.44 12.68C104.58 12.68 104.59 12.61 104.59 12.40C104.59 12.24 104.58 12.18 104.44 12.18L103.95 12.18C103.85 12.18 102.83 9.34 102.27 7.78L100.59 3.07C100.58 3.00 100.51 2.94 100.42 2.94C100.30 2.94 100.20 3.16 100.11 3.35C99.96 3.71 99.72 3.84 99.61 4.13L98.13 7.57C97.94 8.01 96.24 12.18 96.11 12.18L95.69 12.18C95.47 12.18 95.44 12.19 95.44 12.39ZM98.34 8.33C98.34 8.30 98.36 8.23 98.41 8.13L99.78 4.77C99.82 4.66 99.85 4.61 99.88 4.61C99.89 4.61 99.90 4.63 99.95 4.77L101.11 8.18C101.14 8.25 101.15 8.29 101.15 8.32C101.15 8.36 101.12 8.37 101.02 8.37L98.52 8.37C98.34 8.37 98.34 8.34 98.34 8.33ZM110.68 5.01C110.68 5.17 110.87 5.17 110.99 5.17C111.15 5.17 111.19 5.15 111.20 4.97L111.31 3.89C111.33 3.81 111.87 3.75 112.63 3.75L114.62 3.75C114.67 3.75 114.70 4.35 114.70 4.97C114.70 6.43 114.65 12.18 114.52 12.18L113.65 12.18C113.43 12.18 113.39 12.19 113.39 12.39C113.39 12.63 113.40 12.68 113.60 12.68C113.92 12.68 114.90 12.64 115.32 12.64C115.74 12.64 116.68 12.68 117.00 12.68C117.17 12.68 117.19 12.61 117.19 12.40C117.19 12.24 117.17 12.18 117.00 12.18L116.00 12.18C115.98 12.18 115.98 11.76 115.98 11.31C115.98 9.56 116.06 5.96 116.06 5.92C116.07 5.18 116.07 3.75 116.17 3.75L117.78 3.75C118.50 3.75 119.32 3.78 119.32 3.85C119.32 3.99 119.28 4.90 119.28 4.97C119.28 5.12 119.35 5.17 119.53 5.17C119.73 5.17 119.80 5.17 119.80 5.03C119.80 3.93 119.85 3.40 119.85 3.14C119.85 2.94 119.77 2.94 119.57 2.94C119.42 2.94 119.36 2.98 119.35 3.16C119.35 3.23 118.71 3.28 117.87 3.28L112.87 3.28C112.21 3.28 111.40 3.28 111.40 3.21L111.40 3.07C111.40 2.94 111.27 2.94 111.17 2.94C110.95 2.94 110.92 3.00 110.91 3.19C110.85 3.89 110.68 4.97 110.68 5.01ZM127.61 12.39C127.61 12.63 127.64 12.68 127.83 12.68C128.16 12.68 129.12 12.64 129.54 12.64C129.96 12.64 134.47 12.68 134.79 12.68C134.92 12.68 135.07 12.66 135.07 12.49C135.07 12.07 135.11 11.23 135.11 10.53C135.11 10.39 134.96 10.39 134.83 10.39C134.72 10.39 134.60 10.39 134.60 10.51C134.58 11.06 134.58 11.41 134.55 11.76C134.53 12.01 134.53 12.04 134.43 12.04C134.27 12.04 131.64 12.08 130.14 12.08C130.07 12.08 130.03 10.11 129.99 8.26C129.99 8.06 130.03 8.09 130.17 8.09L132.45 8.09C133.15 8.09 133.18 8.20 133.18 8.30L133.18 9.00C133.18 9.14 133.36 9.14 133.48 9.14C133.57 9.14 133.70 9.13 133.70 9.02C133.70 8.83 133.67 8.33 133.67 7.83C133.67 7.32 133.70 6.83 133.70 6.71C133.70 6.59 133.56 6.58 133.46 6.58C133.35 6.58 133.18 6.59 133.18 6.72L133.18 7.45C133.18 7.62 132.73 7.63 132.45 7.63L130.12 7.63C130.00 7.63 129.99 7.63 129.99 7.45C129.98 6.75 129.96 6.06 129.96 5.46C129.96 5.12 129.96 3.71 130.05 3.71C131.28 3.71 133.78 3.75 133.78 3.81C133.78 3.99 133.74 4.83 133.74 4.89C133.74 5.04 133.81 5.10 133.99 5.10C134.19 5.10 134.26 5.08 134.26 4.94C134.26 3.85 134.32 3.36 134.32 3.09C134.32 2.91 134.23 2.90 134.04 2.90C133.84 2.90 133.84 2.95 133.81 3.11C133.80 3.25 133.87 3.25 132.96 3.25C132.34 3.25 130.20 3.29 129.43 3.29C128.94 3.29 128.00 3.25 127.90 3.25C127.78 3.25 127.72 3.30 127.72 3.49C127.72 3.72 127.79 3.74 127.96 3.74L128.62 3.74C128.67 3.74 128.74 4.79 128.74 5.71C128.74 5.80 128.80 8.27 128.80 9.83L128.80 11.17C128.80 11.84 128.77 12.18 128.74 12.18L127.89 12.18C127.67 12.18 127.61 12.21 127.61 12.39ZM152.81 12.39C152.81 12.63 152.84 12.68 153.03 12.68C153.27 12.68 153.78 12.64 154.20 12.64C154.62 12.64 155.11 12.68 155.43 12.68C155.60 12.68 155.62 12.61 155.62 12.40C155.62 12.24 155.60 12.18 155.43 12.18L154.46 12.18C154.41 12.18 154.39 11.54 154.39 10.79C154.39 8.96 154.43 6.13 154.50 4.28C154.53 3.88 154.56 3.91 154.70 4.27L157.96 12.32C158.06 12.54 158.13 12.74 158.24 12.74C158.34 12.74 158.41 12.63 158.49 12.45C158.83 11.79 159.01 11.75 159.28 11.09L161.87 4.47C161.99 4.16 162.04 4.02 162.05 4.47C162.08 5.66 162.12 8.47 162.12 9.74C162.12 10.99 162.08 12.18 162.02 12.18L161.39 12.18C161.17 12.18 161.10 12.19 161.10 12.39C161.10 12.63 161.13 12.68 161.32 12.68C161.52 12.68 162.22 12.64 162.82 12.64C163.24 12.64 164.00 12.68 164.32 12.68C164.49 12.68 164.51 12.61 164.51 12.40C164.51 12.22 164.46 12.18 164.29 12.18L163.56 12.18C163.45 12.18 163.35 8.44 163.35 6.03L163.35 4.77C163.35 4.17 163.38 3.77 163.42 3.70L164.08 3.70C164.30 3.70 164.35 3.68 164.35 3.49C164.35 3.25 164.33 3.19 164.14 3.19C163.81 3.19 163.13 3.23 162.71 3.23L162.04 3.23C161.81 3.23 161.78 3.29 161.67 3.58L158.93 10.72C158.84 10.95 158.82 11.02 158.70 10.74L155.76 3.40C155.69 3.22 155.64 3.19 155.50 3.19C155.41 3.19 154.92 3.23 154.62 3.23C154.11 3.23 153.26 3.19 153.06 3.19C152.92 3.19 152.92 3.26 152.92 3.47C152.92 3.64 152.92 3.70 153.06 3.70L153.76 3.70C154.03 3.70 154.03 3.72 154.03 3.84C154.03 4.82 153.82 9.94 153.78 10.79C153.73 11.55 153.73 12.18 153.68 12.18L153.10 12.18C152.88 12.18 152.81 12.19 152.81 12.39ZM172.41 12.39C172.41 12.63 172.44 12.68 172.63 12.68C172.96 12.68 173.92 12.64 174.34 12.64C174.76 12.64 179.27 12.68 179.59 12.68C179.72 12.68 179.87 12.66 179.87 12.49C179.87 12.07 179.91 11.23 179.91 10.53C179.91 10.39 179.76 10.39 179.63 10.39C179.52 10.39 179.40 10.39 179.40 10.51C179.38 11.06 179.38 11.41 179.35 11.76C179.33 12.01 179.33 12.04 179.23 12.04C179.07 12.04 176.44 12.08 174.94 12.08C174.87 12.08 174.83 10.11 174.79 8.26C174.79 8.06 174.83 8.09 174.97 8.09L177.25 8.09C177.95 8.09 177.98 8.20 177.98 8.30L177.98 9.00C177.98 9.14 178.16 9.14 178.28 9.14C178.37 9.14 178.50 9.13 178.50 9.02C178.50 8.83 178.47 8.33 178.47 7.83C178.47 7.32 178.50 6.83 178.50 6.71C178.50 6.59 178.36 6.58 178.26 6.58C178.15 6.58 177.98 6.59 177.98 6.72L177.98 7.45C177.98 7.62 177.53 7.63 177.25 7.63L174.92 7.63C174.80 7.63 174.79 7.63 174.79 7.45C174.78 6.75 174.76 6.06 174.76 5.46C174.76 5.12 174.76 3.71 174.85 3.71C176.08 3.71 178.58 3.75 178.58 3.81C178.58 3.99 178.54 4.83 178.54 4.89C178.54 5.04 178.61 5.10 178.79 5.10C178.99 5.10 179.06 5.08 179.06 4.94C179.06 3.85 179.12 3.36 179.12 3.09C179.12 2.91 179.03 2.90 178.84 2.90C178.64 2.90 178.64 2.95 178.61 3.11C178.60 3.25 178.67 3.25 177.76 3.25C177.14 3.25 175.00 3.29 174.23 3.29C173.74 3.29 172.80 3.25 172.70 3.25C172.58 3.25 172.52 3.30 172.52 3.49C172.52 3.72 172.59 3.74 172.76 3.74L173.42 3.74C173.47 3.74 173.54 4.79 173.54 5.71C173.54 5.80 173.60 8.27 173.60 9.83L173.60 11.17C173.60 11.84 173.57 12.18 173.54 12.18L172.69 12.18C172.47 12.18 172.41 12.21 172.41 12.39ZM187.81 12.39C187.81 12.63 187.84 12.68 188.03 12.68C188.27 12.68 188.78 12.64 189.20 12.64C189.62 12.64 190.11 12.68 190.43 12.68C190.60 12.68 190.62 12.61 190.62 12.40C190.62 12.24 190.60 12.18 190.43 12.18L189.46 12.18C189.41 12.18 189.39 11.54 189.39 10.79C189.39 8.96 189.43 6.13 189.50 4.28C189.53 3.88 189.56 3.91 189.70 4.27L192.96 12.32C193.06 12.54 193.13 12.74 193.24 12.74C193.34 12.74 193.41 12.63 193.49 12.45C193.83 11.79 194.01 11.75 194.28 11.09L196.87 4.47C196.99 4.16 197.04 4.02 197.05 4.47C197.08 5.66 197.12 8.47 197.12 9.74C197.12 10.99 197.08 12.18 197.02 12.18L196.39 12.18C196.17 12.18 196.10 12.19 196.10 12.39C196.10 12.63 196.13 12.68 196.32 12.68C196.52 12.68 197.22 12.64 197.82 12.64C198.24 12.64 199.00 12.68 199.32 12.68C199.49 12.68 199.51 12.61 199.51 12.40C199.51 12.22 199.46 12.18 199.29 12.18L198.56 12.18C198.45 12.18 198.35 8.44 198.35 6.03L198.35 4.77C198.35 4.17 198.38 3.77 198.42 3.70L199.08 3.70C199.30 3.70 199.35 3.68 199.35 3.49C199.35 3.25 199.33 3.19 199.14 3.19C198.81 3.19 198.13 3.23 197.71 3.23L197.04 3.23C196.81 3.23 196.78 3.29 196.67 3.58L193.93 10.72C193.84 10.95 193.82 11.02 193.70 10.74L190.76 3.40C190.69 3.22 190.64 3.19 190.50 3.19C190.41 3.19 189.92 3.23 189.62 3.23C189.11 3.23 188.26 3.19 188.06 3.19C187.92 3.19 187.92 3.26 187.92 3.47C187.92 3.64 187.92 3.70 188.06 3.70L188.76 3.70C189.03 3.70 189.03 3.72 189.03 3.84C189.03 4.82 188.82 9.94 188.78 10.79C188.73 11.55 188.73 12.18 188.68 12.18L188.10 12.18C187.88 12.18 187.81 12.19 187.81 12.39ZM207.48 8.15C207.48 11.17 209.82 12.80 212.07 12.80C214.86 12.80 216.83 10.89 216.83 8.06C216.83 5.33 215.08 3.11 212.28 3.11C209.68 3.11 207.48 5.10 207.48 8.15ZM208.88 7.77C208.88 5.64 210.17 3.58 212.14 3.58C214.38 3.58 215.46 5.81 215.46 7.94C215.46 10.08 214.35 12.32 212.09 12.32C210.10 12.32 208.88 10.28 208.88 7.77ZM224.94 3.51C224.94 3.72 225.01 3.79 225.20 3.79L226.02 3.77C226.11 3.77 226.16 6.61 226.16 8.55L226.16 10.42C226.16 11.30 226.14 12.18 226.10 12.18L225.50 12.18C225.27 12.18 225.20 12.19 225.20 12.39C225.20 12.63 225.25 12.68 225.44 12.68C225.57 12.68 226.39 12.64 226.81 12.64C227.23 12.64 228.00 12.68 228.33 12.68C228.49 12.68 228.52 12.61 228.52 12.40C228.52 12.24 228.49 12.18 228.33 12.18L227.51 12.18C227.44 12.18 227.36 9.18 227.36 8.37C227.36 8.30 227.36 8.26 227.47 8.26C227.86 8.26 228.47 8.27 228.76 8.27C231.00 8.32 231.14 10.00 231.14 11.68L231.14 12.49C231.14 12.61 231.20 12.64 231.29 12.64C231.29 12.64 232.74 12.68 233.21 12.68C233.38 12.68 233.44 12.64 233.44 12.53C233.44 12.24 233.38 12.18 233.23 12.18L232.58 12.18C232.48 12.18 232.46 12.14 232.43 11.31C232.34 8.99 230.97 8.34 230.06 8.05C229.92 8.01 229.95 8.01 230.06 7.95C230.65 7.69 231.97 6.94 231.97 5.63C231.97 3.63 230.27 3.21 228.87 3.21C228.55 3.21 227.26 3.29 226.84 3.29C226.42 3.29 225.44 3.26 225.22 3.26C225.04 3.26 224.94 3.28 224.94 3.51ZM227.36 7.80L227.36 4.40C227.36 4.05 227.39 3.68 227.43 3.68C227.64 3.65 227.92 3.65 228.14 3.65C229.45 3.65 230.69 4.47 230.69 5.82C230.69 6.99 230.15 7.57 229.49 7.88C229.45 7.90 229.40 7.90 229.33 7.90C228.86 7.88 228.14 7.88 227.54 7.87C227.37 7.87 227.36 7.85 227.36 7.80ZM240.77 12.39C240.77 12.63 240.81 12.68 241.01 12.68C241.33 12.68 242.09 12.64 242.80 12.64C243.46 12.64 244.26 12.68 244.48 12.68C244.65 12.68 244.68 12.61 244.68 12.40C244.68 12.24 244.65 12.18 244.48 12.18L243.52 12.18C243.42 12.18 243.39 9.55 243.39 7.76L243.39 5.87C243.39 5.14 243.42 3.70 243.52 3.70L244.43 3.70C244.65 3.70 244.68 3.68 244.68 3.49C244.68 3.25 244.65 3.19 244.48 3.19C244.16 3.19 243.49 3.23 242.83 3.23C242.02 3.23 241.30 3.19 241.08 3.19C240.90 3.19 240.83 3.21 240.83 3.44C240.83 3.68 240.91 3.70 241.08 3.70L242.00 3.70C242.05 3.70 242.12 4.79 242.12 5.71L242.12 7.08C242.12 8.92 242.10 12.18 241.99 12.18L241.07 12.18C240.84 12.18 240.77 12.19 240.77 12.39ZM252.57 12.39C252.57 12.63 252.60 12.68 252.80 12.68C253.12 12.68 254.09 12.64 254.51 12.64C254.93 12.64 259.43 12.68 259.76 12.68C259.88 12.68 260.04 12.66 260.04 12.49C260.04 12.07 260.08 11.23 260.08 10.53C260.08 10.39 259.92 10.39 259.80 10.39C259.69 10.39 259.56 10.39 259.56 10.51C259.55 11.06 259.55 11.41 259.52 11.76C259.49 12.01 259.49 12.04 259.39 12.04C259.24 12.04 256.61 12.08 255.11 12.08C255.04 12.08 255.00 10.11 254.95 8.26C254.95 8.06 255.00 8.09 255.14 8.09L257.42 8.09C258.12 8.09 258.15 8.20 258.15 8.30L258.15 9.00C258.15 9.14 258.33 9.14 258.44 9.14C258.54 9.14 258.66 9.13 258.66 9.02C258.66 8.83 258.64 8.33 258.64 7.83C258.64 7.32 258.66 6.83 258.66 6.71C258.66 6.59 258.52 6.58 258.43 6.58C258.31 6.58 258.15 6.59 258.15 6.72L258.15 7.45C258.15 7.62 257.70 7.63 257.42 7.63L255.08 7.63C254.97 7.63 254.95 7.63 254.95 7.45C254.94 6.75 254.93 6.06 254.93 5.46C254.93 5.12 254.93 3.71 255.01 3.71C256.24 3.71 258.75 3.75 258.75 3.81C258.75 3.99 258.71 4.83 258.71 4.89C258.71 5.04 258.78 5.10 258.96 5.10C259.15 5.10 259.22 5.08 259.22 4.94C259.22 3.85 259.28 3.36 259.28 3.09C259.28 2.91 259.20 2.90 259 2.90C258.80 2.90 258.80 2.95 258.78 3.11C258.76 3.25 258.83 3.25 257.92 3.25C257.31 3.25 255.16 3.29 254.39 3.29C253.90 3.29 252.97 3.25 252.87 3.25C252.74 3.25 252.69 3.30 252.69 3.49C252.69 3.72 252.76 3.74 252.92 3.74L253.58 3.74C253.64 3.74 253.71 4.79 253.71 5.71C253.71 5.80 253.76 8.27 253.76 9.83L253.76 11.17C253.76 11.84 253.74 12.18 253.71 12.18L252.85 12.18C252.63 12.18 252.57 12.21 252.57 12.39ZM268.25 5.77C268.25 9.07 273.24 8.20 273.24 10.65C273.24 11.59 272.40 12.31 271.42 12.31C270.59 12.31 269.00 11.83 268.97 11.47L268.88 10.15C268.87 9.97 268.80 9.91 268.62 9.91L268.55 9.91C268.34 9.91 268.34 10.00 268.34 10.12C268.34 10.32 268.45 11.66 268.48 12.17C268.49 12.38 269.75 12.85 271.29 12.85C272.86 12.85 274.47 11.87 274.47 10.11C274.47 6.79 269.50 7.87 269.50 5.32C269.50 4.31 270.28 3.56 271.32 3.56C272.34 3.56 273.43 4.58 273.43 4.89C273.43 5.01 273.39 5.73 273.39 5.78C273.39 5.92 273.43 5.99 273.70 5.99C273.94 5.99 273.95 5.94 273.95 5.75C273.95 5.04 274.04 3.68 274.04 3.53C274.04 3.30 273.99 3.29 273.73 3.29C273.50 3.29 273.49 3.32 273.48 3.53C273.48 3.61 273.46 3.78 273.42 3.78C273.36 3.78 273.28 3.74 273.21 3.68C272.41 3.14 271.80 3.08 271.29 3.08C269.77 3.08 268.25 4.17 268.25 5.77Z"></path></g></svg>