<svg xmlns="http://www.w3.org/2000/svg" xmlns:xlink="http://www.w3.org/1999/xlink" data-name="Layer 1" viewBox="0 0 512 512" id="picture"><defs><linearGradient id="a" x1="256.086" x2="256.086" y1="16" y2="490.434" gradientUnits="userSpaceOnUse"><stop offset="0" stop-color="#FF4CC2"></stop><stop offset="1" stop-color="#1182f3"></stop></linearGradient><linearGradient id="b" x1="202.169" x2="202.169" y1="16" y2="490.434" xlink:href="#a"></linearGradient><linearGradient id="c" x1="309.865" x2="309.865" y1="16" y2="490.434" xlink:href="#a"></linearGradient><linearGradient id="d" x1="256.017" x2="256.017" y1="16" y2="490.434" xlink:href="#a"></linearGradient><linearGradient id="e" x1="256.5" x2="256.5" y1="16" y2="490.434" xlink:href="#a"></linearGradient><linearGradient id="f" x1="256" x2="256" y1="16" y2="490.434" xlink:href="#a"></linearGradient></defs><path fill="url(#a)" d="M387.575,236.561c-13.445-42.793-50.765-76.3-97.709-87.365l2.588-13.455a8,8,0,0,0-15.713-3.021l-2.629,13.67q-5.492-.672-11.112-.943V122a8,8,0,0,0-16,0v23.565q-4.994.3-9.887.929l-2.649-13.774a8,8,0,0,0-15.713,3.021l2.624,13.645c-46.579,11.252-83.562,44.637-96.925,87.2a35.613,35.613,0,0,0,0,70.325c16.538,52.679,69.257,91.3,131.567,91.3s115.01-38.61,131.558-91.276a35.616,35.616,0,0,0,0-70.377ZM110.481,271.75a19.61,19.61,0,0,1,9.814-16.965,117.04,117.04,0,0,0,0,33.929A19.609,19.609,0,0,1,110.481,271.75ZM256.017,382.214c-66.7,0-120.958-49.554-120.958-110.464,0-50.924,37.93-93.9,89.342-106.63l2.635,13.7a8,8,0,0,0,15.713-3.021l-2.608-13.562q3.4-.408,6.859-.645V178a8,8,0,0,0,16,0V161.473q4.078.213,8.084.667L268.457,175.8a8,8,0,1,0,15.713,3.021l2.672-13.895c51.814,12.48,90.134,55.641,90.134,106.826C376.976,332.66,322.714,382.214,256.017,382.214Zm135.709-93.408a116.995,116.995,0,0,0,0-34.113,19.581,19.581,0,0,1,0,34.113Z"></path><path fill="url(#b)" d="M231.156,241.926a28.987,28.987,0,1,0-28.987,28.987A29.02,29.02,0,0,0,231.156,241.926Zm-28.987,12.987a12.987,12.987,0,1,1,12.987-12.987A13,13,0,0,1,202.169,254.913Z"></path><path fill="url(#c)" d="M309.865,212.939a28.987,28.987,0,1,0,28.987,28.987A29.02,29.02,0,0,0,309.865,212.939Zm0,41.974a12.987,12.987,0,1,1,12.987-12.987A13,13,0,0,1,309.865,254.913Z"></path><path fill="url(#d)" d="M292.191,309.865a8,8,0,0,0-8,8c0,12.186-12.639,22.1-28.174,22.1s-28.174-9.914-28.174-22.1a8,8,0,0,0-16,0c0,21.009,19.816,38.1,44.174,38.1s44.174-17.091,44.174-38.1A8,8,0,0,0,292.191,309.865Z"></path><path fill="url(#e)" d="M493,28a8,8,0,0,0-8-8H28a8,8,0,0,0-8,8V485a8,8,0,0,0,8,8H485a8,8,0,0,0,8-8ZM476,476H36V36H476Z"></path><path fill="url(#f)" d="M449,71a8,8,0,0,0-8-8H71a8,8,0,0,0-8,8V441a8,8,0,0,0,8,8H441a8,8,0,0,0,8-8ZM79,79H433V433H79Z"></path></svg>