<svg xmlns="http://www.w3.org/2000/svg" xmlns:xlink="http://www.w3.org/1999/xlink" viewBox="0 0 64 64" id="present"><defs><linearGradient id="a" x1="-3.24" x2="66.32" y1="-1.87" y2="67.69" gradientUnits="userSpaceOnUse"><stop offset="0" stop-color="#FF4CC2"></stop><stop offset="1" stop-color="#4ca5ff"></stop></linearGradient><linearGradient id="b" x1="-3.81" x2="65.74" y1="-1.28" y2="68.27" xlink:href="#a"></linearGradient><linearGradient id="c" x1="-.31" x2="69.23" y1="-4.77" y2="64.77" xlink:href="#a"></linearGradient><linearGradient id="d" x1="1.93" x2="71.51" y1="-7.06" y2="62.52" xlink:href="#a"></linearGradient></defs><path fill="url(#a)" d="m54,17.42h-8.41c3.88-.21,6.22-4.36,4.23-7.73-1.44-2.99-5.78-3.62-7.98-1.14,0,0-6.1,6.42-6.1,6.42-1.21-3.46-6.26-3.46-7.47,0l-6.1-6.42c-2.22-2.48-6.55-1.85-7.99,1.16-1.99,3.35.4,7.53,4.24,7.71h-8.41c-1.65,0-3,1.36-3,3.03v4.06c0,1.67,1.35,3.03,3,3.03h2v26.42c0,1.67,1.35,3.03,3,3.03,9.73,0,24.28,0,34,0,1.65,0,3-1.36,3-3.03v-26.42h2c1.65,0,3-1.36,3-3.03v-4.06c0-1.67-1.35-3.03-3-3.03Zm-10.71-7.5c2.51-2.61,6.42.76,4.93,3.76-.43.87-1.22,1.46-2.16,1.62l-9.41,1.61,6.65-7Zm-11.29,4.42c1.38-.03,2.38,1.49,1.86,2.78-.04.1-.09.2-.14.3h-3.45c-.06-.09-.1-.19-.13-.28-.53-1.29.47-2.83,1.86-2.8Zm-16.21-.65c-1.02-1.95.55-4.75,2.81-4.69.8,0,1.55.33,2.12.93l6.65,7-9.41-1.61c-.94-.16-1.73-.75-2.16-1.62Zm-6.79,10.83v-4.06c0-.57.45-1.03,1-1.03h18v6.13H10c-.55,0-1-.46-1-1.03Zm5,29.46v-26.42h14v27.46h-13c-.55,0-1-.46-1-1.03Zm16-27.42v-7.13h4v35.58h-4v-28.46Zm20,27.42c0,.57-.45,1.03-1,1.03h-13v-27.46h14v26.42Zm5-29.46c0,.57-.45,1.03-1,1.03h-18v-6.13h18c.55,0,1,.46,1,1.03v4.06Z"></path><path fill="url(#b)" d="m47,53c.55,0,1-.45,1-1v-4.94c0-.55-.45-1-1-1s-1,.45-1,1v4.94c0,.55.45,1,1,1Z"></path><path fill="url(#c)" d="m47.05,45.06c.56,0,1.01-.46,1-1.02,0,0-.05-3-.05-3,0-.55-.47-.97-1.02-.98-.55,0-.99.47-.98,1.02l.05,3c0,.55.46.98,1,.98Z"></path><path fill="url(#d)" d="m46.5,38.9s.11.06.17.09c.06.02.12.04.19.05.13.03.26.03.39,0,.06-.01.12-.03.19-.05.06-.03.11-.06.17-.09.32-.23.51-.64.42-1.03-.01-.07-.03-.13-.05-.19-.03-.06-.06-.12-.1-.17-.03-.06-.07-.11-.12-.15-.05-.05-.1-.09-.15-.13-.06-.03-.11-.06-.17-.09-.07-.02-.13-.04-.19-.06-.13-.02-.26-.02-.39,0-.07.02-.13.04-.19.06-.12.06-.24.12-.32.22-.09.08-.17.2-.22.32-.17.36-.06.81.22,1.09.04.05.09.09.15.13Z"></path></svg>