<svg xmlns="http://www.w3.org/2000/svg" viewBox="0 0 32 32" id="right"><defs><linearGradient id="a" x1="2.622" x2="29.366" y1="16.001" y2="16.001" gradientUnits="userSpaceOnUse"><stop offset="0" stop-color="#f998d9"></stop><stop offset="1" stop-color="#4ca5ff"></stop></linearGradient></defs><path fill="url(#a)" d="M8.125,28.25a1.0148,1.0148,0,0,1-.98-1.1963L9.355,16,7.1445,4.9463a1.0088,1.0088,0,0,1,1.4663-1.07l20.25,11.25a1.0092,1.0092,0,0,1,0,1.748l-20.25,11.25A.9973.9973,0,0,1,8.125,28.25ZM9.53,6.6743l1.8257,9.1294a1.0023,1.0023,0,0,1,0,.3926L9.53,25.3257,26.3159,16ZM4.6055,27.4463l2.25-11.25a1.0023,1.0023,0,0,0,0-.3926l-2.25-11.25a1.0005,1.0005,0,0,0-1.9609.3926L4.855,16l-2.21,11.0537A1.0107,1.0107,0,0,0,3.626,28.25,1,1,0,0,0,4.6055,27.4463Z" data-name="22 Right"></path></svg>